<svg version="1.0" xmlns="http://www.w3.org/2000/svg" height="100" width="100">

<style>
    circle {
    fill: white;
    }
</style>
<rect width="100%" height="100%" fill="black"/>
<circle cx="75.0000" cy="50.0000" r="21.6506"/>
<circle cx="37.5000" cy="71.6506" r="21.6506"/>
<circle cx="37.5000" cy="28.3494" r="21.6506"/>
<circle cx="68.1002" cy="81.3505" r="10.4502"/>
<circle cx="68.1002" cy="18.6495" r="10.4502"/>
<circle cx="13.7995" cy="50.0000" r="10.4502"/>
<circle cx="82.6186" cy="75.6805" r="5.1361"/>
<circle cx="82.6186" cy="24.3195" r="5.1361"/>
<circle cx="55.9306" cy="91.0887" r="5.1361"/>
<circle cx="11.4508" cy="65.4083" r="5.1361"/>
<circle cx="55.9306" cy="8.9113" r="5.1361"/>
<circle cx="11.4508" cy="34.5917" r="5.1361"/>
<circle cx="50.0000" cy="50.0000" r="3.3494"/>
<circle cx="88.6904" cy="70.3955" r="2.9136"/>
<circle cx="88.6904" cy="29.6045" r="2.9136"/>
<circle cx="48.3178" cy="93.7046" r="2.9136"/>
<circle cx="12.9918" cy="73.3091" r="2.9136"/>
<circle cx="48.3178" cy="6.2954" r="2.9136"/>
<circle cx="12.9918" cy="26.6909" r="2.9136"/>
<circle cx="61.6175" cy="70.1221" r="2.5153"/>
<circle cx="61.6175" cy="29.8779" r="2.5153"/>
<circle cx="26.7650" cy="50.0000" r="2.5153"/>
<circle cx="80.5274" cy="82.5385" r="2.0337"/>
<circle cx="62.9154" cy="92.7067" r="2.0337"/>
<circle cx="80.5274" cy="17.4615" r="2.0337"/>
<circle cx="62.9154" cy="7.2933" r="2.0337"/>
<circle cx="6.5572" cy="60.1683" r="2.0337"/>
<circle cx="6.5572" cy="39.8317" r="2.0337"/>
<circle cx="91.6028" cy="66.6288" r="1.8476"/>
<circle cx="91.6028" cy="33.3712" r="1.8476"/>
<circle cx="43.5996" cy="94.3435" r="1.8476"/>
<circle cx="14.7977" cy="77.7147" r="1.8476"/>
<circle cx="43.5996" cy="5.6565" r="1.8476"/>
<circle cx="14.7977" cy="22.2853" r="1.8476"/>
<circle cx="76.5984" cy="73.0349" r="1.4397"/>
<circle cx="76.5984" cy="26.9651" r="1.4397"/>
<circle cx="56.6496" cy="84.5524" r="1.4397"/>
<circle cx="16.7519" cy="61.5175" r="1.4397"/>
<circle cx="56.6496" cy="15.4476" r="1.4397"/>
<circle cx="16.7519" cy="38.4825" r="1.4397"/>
<circle cx="52.3543" cy="54.0778" r="1.3593"/>
<circle cx="52.3543" cy="45.9222" r="1.3593"/>
<circle cx="45.2914" cy="50.0000" r="1.3593"/>
<circle cx="93.1869" cy="63.9461" r="1.2678"/>
<circle cx="93.1869" cy="36.0539" r="1.2678"/>
<circle cx="40.4843" cy="94.3740" r="1.2678"/>
<circle cx="16.3289" cy="80.4279" r="1.2678"/>
<circle cx="40.4843" cy="5.6260" r="1.2678"/>
<circle cx="16.3289" cy="19.5721" r="1.2678"/>
<circle cx="59.7944" cy="66.9644" r="1.1310"/>
<circle cx="59.7944" cy="33.0356" r="1.1310"/>
<circle cx="30.4112" cy="50.0000" r="1.1310"/>
<circle cx="78.9518" cy="85.2089" r="1.0669"/>
<circle cx="66.0159" cy="92.6774" r="1.0669"/>
<circle cx="78.9518" cy="14.7911" r="1.0669"/>
<circle cx="66.0159" cy="7.3226" r="1.0669"/>
<circle cx="5.0323" cy="57.4686" r="1.0669"/>
<circle cx="5.0323" cy="42.5314" r="1.0669"/>
<circle cx="88.6161" cy="74.3218" r="1.0134"/>
<circle cx="88.6161" cy="25.6782" r="1.0134"/>
<circle cx="51.7553" cy="95.6035" r="1.0134"/>
<circle cx="9.6286" cy="71.2816" r="1.0134"/>
<circle cx="51.7553" cy="4.3965" r="1.0134"/>
<circle cx="9.6286" cy="28.7184" r="1.0134"/>
<circle cx="65.0946" cy="70.3347" r="0.9683"/>
<circle cx="65.0946" cy="29.6653" r="0.9683"/>
<circle cx="60.0631" cy="73.2397" r="0.9683"/>
<circle cx="24.8423" cy="52.9050" r="0.9683"/>
<circle cx="60.0631" cy="26.7603" r="0.9683"/>
<circle cx="24.8423" cy="47.0950" r="0.9683"/>
<circle cx="94.1344" cy="61.9730" r="0.9210"/>
<circle cx="94.1344" cy="38.0270" r="0.9210"/>
<circle cx="38.3017" cy="94.2080" r="0.9210"/>
<circle cx="17.5639" cy="82.2350" r="0.9210"/>
<circle cx="38.3017" cy="5.7920" r="0.9210"/>
<circle cx="17.5639" cy="17.7650" r="0.9210"/>
<circle cx="84.9427" cy="70.1742" r="0.8406"/>
<circle cx="84.9427" cy="29.8258" r="0.8406"/>
<circle cx="50.0000" cy="90.3484" r="0.8406"/>
<circle cx="15.0573" cy="70.1742" r="0.8406"/>
<circle cx="50.0000" cy="9.6516" r="0.8406"/>
<circle cx="15.0573" cy="29.8258" r="0.8406"/>
<circle cx="83.2109" cy="81.5972" r="0.8102"/>
<circle cx="83.2109" cy="18.4028" r="0.8102"/>
<circle cx="60.7585" cy="94.5601" r="0.8102"/>
<circle cx="6.0306" cy="62.9629" r="0.8102"/>
<circle cx="60.7585" cy="5.4399" r="0.8102"/>
<circle cx="6.0306" cy="37.0371" r="0.8102"/>
<circle cx="53.4023" cy="55.8929" r="0.7366"/>
<circle cx="53.4023" cy="44.1071" r="0.7366"/>
<circle cx="43.1955" cy="50.0000" r="0.7366"/>
<circle cx="94.7432" cy="60.4726" r="0.6982"/>
<circle cx="94.7432" cy="39.5274" r="0.6982"/>
<circle cx="36.6980" cy="93.9850" r="0.6982"/>
<circle cx="18.5588" cy="83.5124" r="0.6982"/>
<circle cx="36.6980" cy="6.0150" r="0.6982"/>
<circle cx="18.5588" cy="16.4876" r="0.6982"/>
<circle cx="74.6054" cy="72.3236" r="0.6765"/>
<circle cx="74.6054" cy="27.6764" r="0.6765"/>
<circle cx="57.0301" cy="82.4707" r="0.6765"/>
<circle cx="18.3645" cy="60.1471" r="0.6765"/>
<circle cx="57.0301" cy="17.5293" r="0.6765"/>
<circle cx="18.3645" cy="39.8529" r="0.6765"/>
<circle cx="77.9002" cy="86.5699" r="0.6530"/>
<circle cx="67.7204" cy="92.4472" r="0.6530"/>
<circle cx="77.9002" cy="13.4301" r="0.6530"/>
<circle cx="67.7204" cy="7.5528" r="0.6530"/>
<circle cx="4.3794" cy="55.8773" r="0.6530"/>
<circle cx="4.3794" cy="44.1227" r="0.6530"/>
<circle cx="58.9075" cy="65.4282" r="0.6428"/>
<circle cx="58.9075" cy="34.5718" r="0.6428"/>
<circle cx="32.1850" cy="50.0000" r="0.6428"/>
<circle cx="79.1283" cy="80.2711" r="0.6306"/>
<circle cx="61.6513" cy="90.3614" r="0.6306"/>
<circle cx="79.1283" cy="19.7289" r="0.6306"/>
<circle cx="61.6513" cy="9.6386" r="0.6306"/>
<circle cx="9.2203" cy="60.0904" r="0.6306"/>
<circle cx="9.2203" cy="39.9096" r="0.6306"/>
<circle cx="91.9310" cy="69.0496" r="0.5953"/>
<circle cx="91.9310" cy="30.9504" r="0.5953"/>
<circle cx="45.5319" cy="95.8381" r="0.5953"/>
<circle cx="12.5371" cy="76.7885" r="0.5953"/>
<circle cx="45.5319" cy="4.1619" r="0.5953"/>
<circle cx="12.5371" cy="23.2115" r="0.5953"/>
<circle cx="78.2938" cy="71.9684" r="0.5633"/>
<circle cx="78.2938" cy="28.0316" r="0.5633"/>
<circle cx="54.8782" cy="85.4874" r="0.5633"/>
<circle cx="16.8279" cy="63.5190" r="0.5633"/>
<circle cx="54.8782" cy="14.5126" r="0.5633"/>
<circle cx="16.8279" cy="36.4810" r="0.5633"/>
<circle cx="95.1564" cy="59.2981" r="0.5469"/>
<circle cx="95.1564" cy="40.7019" r="0.5469"/>
<circle cx="35.4742" cy="93.7556" r="0.5469"/>
<circle cx="19.3695" cy="84.4575" r="0.5469"/>
<circle cx="35.4742" cy="6.2444" r="0.5469"/>
<circle cx="19.3695" cy="15.5425" r="0.5469"/>
<circle cx="89.2526" cy="66.9969" r="0.5312"/>
<circle cx="89.2526" cy="33.0031" r="0.5312"/>
<circle cx="45.0934" cy="92.4922" r="0.5312"/>
<circle cx="15.6539" cy="75.4953" r="0.5312"/>
<circle cx="45.0934" cy="7.5078" r="0.5312"/>
<circle cx="15.6539" cy="24.5047" r="0.5312"/>
<circle cx="77.0099" cy="74.9507" r="0.5198"/>
<circle cx="58.1030" cy="85.8667" r="0.5198"/>
<circle cx="77.0099" cy="25.0493" r="0.5198"/>
<circle cx="58.1030" cy="14.1333" r="0.5198"/>
<circle cx="14.8871" cy="60.9159" r="0.5198"/>
<circle cx="14.8871" cy="39.0841" r="0.5198"/>
<circle cx="66.5665" cy="70.4958" r="0.5124"/>
<circle cx="66.5665" cy="29.5042" r="0.5124"/>
<circle cx="59.4666" cy="74.5949" r="0.5124"/>
<circle cx="23.9669" cy="54.0992" r="0.5124"/>
<circle cx="59.4666" cy="25.4051" r="0.5124"/>
<circle cx="23.9669" cy="45.9008" r="0.5124"/>
<circle cx="88.2593" cy="75.7986" r="0.5059"/>
<circle cx="88.2593" cy="24.2014" r="0.5059"/>
<circle cx="53.2126" cy="96.0328" r="0.5059"/>
<circle cx="8.5281" cy="70.2342" r="0.5059"/>
<circle cx="53.2126" cy="3.9672" r="0.5059"/>
<circle cx="8.5281" cy="29.7658" r="0.5059"/>
<circle cx="53.0032" cy="52.3644" r="0.4729"/>
<circle cx="53.0032" cy="47.6356" r="0.4729"/>
<circle cx="50.5460" cy="53.7830" r="0.4729"/>
<circle cx="46.4508" cy="51.4186" r="0.4729"/>
<circle cx="50.5460" cy="46.2170" r="0.4729"/>
<circle cx="46.4508" cy="48.5814" r="0.4729"/>
<circle cx="54.0016" cy="56.9310" r="0.4621"/>
<circle cx="54.0016" cy="43.0690" r="0.4621"/>
<circle cx="41.9968" cy="50.0000" r="0.4621"/>
<circle cx="95.4491" cy="58.3558" r="0.4398"/>
<circle cx="95.4491" cy="41.6442" r="0.4398"/>
<circle cx="34.5117" cy="93.5380" r="0.4398"/>
<circle cx="20.0391" cy="85.1822" r="0.4398"/>
<circle cx="34.5117" cy="6.4620" r="0.4398"/>
<circle cx="20.0391" cy="14.8178" r="0.4398"/>
<circle cx="77.1679" cy="87.3811" r="0.4398"/>
<circle cx="68.7890" cy="92.2187" r="0.4398"/>
<circle cx="77.1679" cy="12.6189" r="0.4398"/>
<circle cx="68.7890" cy="7.7813" r="0.4398"/>
<circle cx="4.0430" cy="54.8376" r="0.4398"/>
<circle cx="4.0430" cy="45.1624" r="0.4398"/>
<circle cx="84.2924" cy="80.9893" r="0.4304"/>
<circle cx="84.2924" cy="19.0107" r="0.4304"/>
<circle cx="59.6913" cy="95.1928" r="0.4304"/>
<circle cx="6.0162" cy="64.2034" r="0.4304"/>
<circle cx="59.6913" cy="4.8072" r="0.4304"/>
<circle cx="6.0162" cy="35.7966" r="0.4304"/>
<circle cx="58.3788" cy="64.5124" r="0.4146"/>
<circle cx="58.3788" cy="35.4876" r="0.4146"/>
<circle cx="33.2425" cy="50.0000" r="0.4146"/>
<circle cx="89.8027" cy="73.5305" r="0.4128"/>
<circle cx="89.8027" cy="26.4695" r="0.4128"/>
<circle cx="50.4767" cy="96.2354" r="0.4128"/>
<circle cx="9.7207" cy="72.7049" r="0.4128"/>
<circle cx="50.4767" cy="3.7646" r="0.4128"/>
<circle cx="9.7207" cy="27.2951" r="0.4128"/>
<circle cx="83.7076" cy="70.2554" r="0.3972"/>
<circle cx="83.7076" cy="29.7446" r="0.3972"/>
<circle cx="50.6879" cy="89.3194" r="0.3972"/>
<circle cx="15.6045" cy="69.0639" r="0.3972"/>
<circle cx="50.6879" cy="10.6806" r="0.3972"/>
<circle cx="15.6045" cy="30.9361" r="0.3972"/>
<circle cx="73.5869" cy="71.9981" r="0.3928"/>
<circle cx="73.5869" cy="28.0019" r="0.3928"/>
<circle cx="57.2575" cy="81.4259" r="0.3928"/>
<circle cx="19.1556" cy="59.4278" r="0.3928"/>
<circle cx="57.2575" cy="18.5741" r="0.3928"/>
<circle cx="19.1556" cy="40.5722" r="0.3928"/>
<circle cx="93.5668" cy="65.5587" r="0.3890"/>
<circle cx="93.5668" cy="34.4413" r="0.3890"/>
<circle cx="41.6909" cy="95.5093" r="0.3890"/>
<circle cx="14.7423" cy="79.9506" r="0.3890"/>
<circle cx="41.6909" cy="4.4907" r="0.3890"/>
<circle cx="14.7423" cy="20.0494" r="0.3890"/>
<circle cx="61.2827" cy="67.2431" r="0.3832"/>
<circle cx="61.2827" cy="32.7569" r="0.3832"/>
<circle cx="59.2916" cy="68.3926" r="0.3832"/>
<circle cx="29.4257" cy="51.1495" r="0.3832"/>
<circle cx="59.2916" cy="31.6074" r="0.3832"/>
<circle cx="29.4257" cy="48.8505" r="0.3832"/>
<circle cx="80.3599" cy="84.9340" r="0.3677"/>
<circle cx="65.0738" cy="93.7594" r="0.3677"/>
<circle cx="80.3599" cy="15.0660" r="0.3677"/>
<circle cx="65.0738" cy="6.2406" r="0.3677"/>
<circle cx="4.5663" cy="58.8254" r="0.3677"/>
<circle cx="4.5663" cy="41.1746" r="0.3677"/>
<circle cx="95.6639" cy="57.5842" r="0.3612"/>
<circle cx="95.6639" cy="42.4158" r="0.3612"/>
<circle cx="33.7361" cy="93.3382" r="0.3612"/>
<circle cx="20.5999" cy="85.7540" r="0.3612"/>
<circle cx="33.7361" cy="6.6618" r="0.3612"/>
<circle cx="20.5999" cy="14.2460" r="0.3612"/>
<circle cx="91.6292" cy="64.4208" r="0.3605"/>
<circle cx="91.6292" cy="35.5792" r="0.3605"/>
<circle cx="41.6742" cy="93.2624" r="0.3605"/>
<circle cx="16.6966" cy="78.8416" r="0.3605"/>
<circle cx="41.6742" cy="6.7376" r="0.3605"/>
<circle cx="16.6966" cy="21.1584" r="0.3605"/>
<circle cx="64.3466" cy="69.2492" r="0.3500"/>
<circle cx="64.3466" cy="30.7508" r="0.3500"/>
<circle cx="59.4970" cy="72.0491" r="0.3500"/>
<circle cx="26.1564" cy="52.7999" r="0.3500"/>
<circle cx="59.4970" cy="27.9509" r="0.3500"/>
<circle cx="26.1564" cy="47.2001" r="0.3500"/>
<circle cx="85.6536" cy="69.2348" r="0.3375"/>
<circle cx="85.6536" cy="30.7652" r="0.3375"/>
<circle cx="48.8310" cy="90.4943" r="0.3375"/>
<circle cx="15.5154" cy="71.2595" r="0.3375"/>
<circle cx="48.8310" cy="9.5057" r="0.3375"/>
<circle cx="15.5154" cy="28.7405" r="0.3375"/>
<circle cx="64.2139" cy="71.2923" r="0.3327"/>
<circle cx="61.3327" cy="72.9558" r="0.3327"/>
<circle cx="64.2139" cy="28.7077" r="0.3327"/>
<circle cx="61.3327" cy="27.0442" r="0.3327"/>
<circle cx="24.4533" cy="51.6635" r="0.3327"/>
<circle cx="24.4533" cy="48.3365" r="0.3327"/>
<circle cx="78.5780" cy="83.8674" r="0.3256"/>
<circle cx="65.0410" cy="91.6830" r="0.3256"/>
<circle cx="78.5780" cy="16.1326" r="0.3256"/>
<circle cx="65.0410" cy="8.3170" r="0.3256"/>
<circle cx="6.3810" cy="57.8156" r="0.3256"/>
<circle cx="6.3810" cy="42.1844" r="0.3256"/>
<circle cx="87.6026" cy="73.4467" r="0.3256"/>
<circle cx="87.6026" cy="26.5533" r="0.3256"/>
<circle cx="51.5041" cy="94.2882" r="0.3256"/>
<circle cx="10.8933" cy="70.8415" r="0.3256"/>
<circle cx="51.5041" cy="5.7118" r="0.3256"/>
<circle cx="10.8933" cy="29.1585" r="0.3256"/>
<circle cx="67.3885" cy="70.6069" r="0.3170"/>
<circle cx="67.3885" cy="29.3931" r="0.3170"/>
<circle cx="59.1518" cy="75.3623" r="0.3170"/>
<circle cx="23.4597" cy="54.7554" r="0.3170"/>
<circle cx="59.1518" cy="24.6377" r="0.3170"/>
<circle cx="23.4597" cy="45.2446" r="0.3170"/>
<circle cx="54.3911" cy="57.6056" r="0.3169"/>
<circle cx="54.3911" cy="42.3944" r="0.3169"/>
<circle cx="41.2179" cy="50.0000" r="0.3169"/>
<circle cx="76.6333" cy="87.9153" r="0.3160"/>
<circle cx="69.5189" cy="92.0228" r="0.3160"/>
<circle cx="76.6333" cy="12.0847" r="0.3160"/>
<circle cx="69.5189" cy="7.9772" r="0.3160"/>
<circle cx="3.8477" cy="54.1075" r="0.3160"/>
<circle cx="3.8477" cy="45.8925" r="0.3160"/>
<circle cx="82.8687" cy="82.6649" r="0.3111"/>
<circle cx="61.8543" cy="94.7976" r="0.3111"/>
<circle cx="82.8687" cy="17.3351" r="0.3111"/>
<circle cx="61.8543" cy="5.2024" r="0.3111"/>
<circle cx="5.2770" cy="62.1327" r="0.3111"/>
<circle cx="5.2770" cy="37.8673" r="0.3111"/>
<circle cx="78.6868" cy="79.4442" r="0.3067"/>
<circle cx="61.1560" cy="89.5656" r="0.3067"/>
<circle cx="78.6868" cy="20.5558" r="0.3067"/>
<circle cx="61.1560" cy="10.4344" r="0.3067"/>
<circle cx="10.1572" cy="60.1214" r="0.3067"/>
<circle cx="10.1572" cy="39.8786" r="0.3067"/>
<circle cx="95.8261" cy="56.9414" r="0.3018"/>
<circle cx="95.8261" cy="43.0586" r="0.3018"/>
<circle cx="33.0984" cy="93.1573" r="0.3018"/>
<circle cx="21.0755" cy="86.2159" r="0.3018"/>
<circle cx="33.0984" cy="6.8427" r="0.3018"/>
<circle cx="21.0755" cy="13.7841" r="0.3018"/>
<circle cx="87.9851" cy="76.5583" r="0.3018"/>
<circle cx="87.9851" cy="23.4417" r="0.3018"/>
<circle cx="54.0076" cy="96.1752" r="0.3018"/>
<circle cx="8.0073" cy="69.6169" r="0.3018"/>
<circle cx="54.0076" cy="3.8248" r="0.3018"/>
<circle cx="8.0073" cy="30.3831" r="0.3018"/>
<circle cx="79.0600" cy="71.5715" r="0.2996"/>
<circle cx="79.0600" cy="28.4285" r="0.2996"/>
<circle cx="54.1514" cy="85.9525" r="0.2996"/>
<circle cx="16.7885" cy="64.3810" r="0.2996"/>
<circle cx="54.1514" cy="14.0475" r="0.2996"/>
<circle cx="16.7885" cy="35.6190" r="0.2996"/>
<circle cx="85.5666" cy="71.1211" r="0.2933"/>
<circle cx="85.5666" cy="28.8789" r="0.2933"/>
<circle cx="50.5081" cy="91.3621" r="0.2933"/>
<circle cx="13.9253" cy="70.2410" r="0.2933"/>
<circle cx="50.5081" cy="8.6379" r="0.2933"/>
<circle cx="13.9253" cy="29.7590" r="0.2933"/>
<circle cx="58.0266" cy="63.9025" r="0.2896"/>
<circle cx="58.0266" cy="36.0975" r="0.2896"/>
<circle cx="33.9468" cy="50.0000" r="0.2896"/>
<circle cx="91.8590" cy="69.9308" r="0.2889"/>
<circle cx="91.8590" cy="30.0692" r="0.2889"/>
<circle cx="46.3311" cy="96.2164" r="0.2889"/>
<circle cx="11.8099" cy="76.2856" r="0.2889"/>
<circle cx="46.3311" cy="3.7836" r="0.2889"/>
<circle cx="11.8099" cy="23.7144" r="0.2889"/>
<circle cx="94.4845" cy="63.1148" r="0.2732"/>
<circle cx="94.4845" cy="36.8852" r="0.2732"/>
<circle cx="39.1155" cy="95.0821" r="0.2732"/>
<circle cx="16.4000" cy="81.9673" r="0.2732"/>
<circle cx="39.1155" cy="4.9179" r="0.2732"/>
<circle cx="16.4000" cy="18.0327" r="0.2732"/>
<circle cx="77.2147" cy="75.7113" r="0.2678"/>
<circle cx="58.6592" cy="86.4243" r="0.2678"/>
<circle cx="77.2147" cy="24.2887" r="0.2678"/>
<circle cx="58.6592" cy="13.5757" r="0.2678"/>
<circle cx="14.1260" cy="60.7130" r="0.2678"/>
<circle cx="14.1260" cy="39.2870" r="0.2678"/>
<circle cx="84.8653" cy="80.5932" r="0.2660"/>
<circle cx="84.8653" cy="19.4068" r="0.2660"/>
<circle cx="59.0619" cy="95.4908" r="0.2660"/>
<circle cx="6.0729" cy="64.8976" r="0.2660"/>
<circle cx="59.0619" cy="4.5092" r="0.2660"/>
<circle cx="6.0729" cy="35.1024" r="0.2660"/>
<circle cx="93.0450" cy="62.4260" r="0.2589"/>
<circle cx="93.0450" cy="37.5740" r="0.2589"/>
<circle cx="39.2388" cy="93.4910" r="0.2589"/>
<circle cx="17.7163" cy="81.0650" r="0.2589"/>
<circle cx="39.2388" cy="6.5090" r="0.2589"/>
<circle cx="17.7163" cy="18.9350" r="0.2589"/>
<circle cx="82.2837" cy="81.0650" r="0.2589"/>
<circle cx="82.2837" cy="18.9350" r="0.2589"/>
<circle cx="60.7612" cy="93.4910" r="0.2589"/>
<circle cx="6.9550" cy="62.4260" r="0.2589"/>
<circle cx="60.7612" cy="6.5090" r="0.2589"/>
<circle cx="6.9550" cy="37.5740" r="0.2589"/>
<circle cx="72.9645" cy="71.8125" r="0.2566"/>
<circle cx="72.9645" cy="28.1875" r="0.2566"/>
<circle cx="57.4079" cy="80.7941" r="0.2566"/>
<circle cx="19.6276" cy="58.9816" r="0.2566"/>
<circle cx="57.4079" cy="19.2059" r="0.2566"/>
<circle cx="19.6276" cy="41.0184" r="0.2566"/>
<circle cx="95.9515" cy="56.3979" r="0.2559"/>
<circle cx="95.9515" cy="43.6021" r="0.2559"/>
<circle cx="32.5650" cy="92.9941" r="0.2559"/>
<circle cx="21.4835" cy="86.5962" r="0.2559"/>
<circle cx="32.5650" cy="7.0059" r="0.2559"/>
<circle cx="21.4835" cy="13.4038" r="0.2559"/>
<circle cx="88.5096" cy="67.2372" r="0.2498"/>
<circle cx="88.5096" cy="32.7628" r="0.2498"/>
<circle cx="45.6731" cy="91.9689" r="0.2498"/>
<circle cx="15.8174" cy="74.7317" r="0.2498"/>
<circle cx="45.6731" cy="8.0311" r="0.2498"/>
<circle cx="15.8174" cy="25.2683" r="0.2498"/>
<circle cx="92.5608" cy="68.4910" r="0.2465"/>
<circle cx="92.5608" cy="31.5090" r="0.2465"/>
<circle cx="44.7333" cy="96.1042" r="0.2465"/>
<circle cx="12.7059" cy="77.6132" r="0.2465"/>
<circle cx="44.7333" cy="3.8958" r="0.2465"/>
<circle cx="12.7059" cy="22.3868" r="0.2465"/>
<circle cx="78.7877" cy="81.0733" r="0.2409"/>
<circle cx="62.5164" cy="90.4675" r="0.2409"/>
<circle cx="78.7877" cy="18.9267" r="0.2409"/>
<circle cx="62.5164" cy="9.5325" r="0.2409"/>
<circle cx="8.6959" cy="59.3942" r="0.2409"/>
<circle cx="8.6959" cy="40.6058" r="0.2409"/>
<circle cx="53.1744" cy="51.6734" r="0.2391"/>
<circle cx="53.1744" cy="48.3266" r="0.2391"/>
<circle cx="49.8620" cy="53.5858" r="0.2391"/>
<circle cx="46.9636" cy="51.9124" r="0.2391"/>
<circle cx="49.8620" cy="46.4142" r="0.2391"/>
<circle cx="46.9636" cy="48.0876" r="0.2391"/>
<circle cx="76.2273" cy="88.2920" r="0.2378"/>
<circle cx="70.0481" cy="91.8595" r="0.2378"/>
<circle cx="76.2273" cy="11.7080" r="0.2378"/>
<circle cx="70.0481" cy="8.1405" r="0.2378"/>
<circle cx="3.7245" cy="53.5676" r="0.2378"/>
<circle cx="3.7245" cy="46.4324" r="0.2378"/>
<circle cx="53.6828" cy="54.9614" r="0.2363"/>
<circle cx="53.6828" cy="45.0386" r="0.2363"/>
<circle cx="52.4552" cy="55.6701" r="0.2363"/>
<circle cx="43.8619" cy="50.7088" r="0.2363"/>
<circle cx="52.4552" cy="44.3299" r="0.2363"/>
<circle cx="43.8619" cy="49.2912" r="0.2363"/>
<circle cx="83.0843" cy="70.3335" r="0.2311"/>
<circle cx="83.0843" cy="29.6665" r="0.2311"/>
<circle cx="51.0672" cy="88.8186" r="0.2311"/>
<circle cx="15.8485" cy="68.4850" r="0.2311"/>
<circle cx="51.0672" cy="11.1814" r="0.2311"/>
<circle cx="15.8485" cy="31.5150" r="0.2311"/>
<circle cx="54.6649" cy="58.0799" r="0.2309"/>
<circle cx="54.6649" cy="41.9201" r="0.2309"/>
<circle cx="40.6701" cy="50.0000" r="0.2309"/>
<circle cx="75.3948" cy="71.8774" r="0.2303"/>
<circle cx="75.3948" cy="28.1226" r="0.2303"/>
<circle cx="56.2490" cy="82.9312" r="0.2303"/>
<circle cx="18.3563" cy="61.0538" r="0.2303"/>
<circle cx="56.2490" cy="17.0688" r="0.2303"/>
<circle cx="18.3563" cy="38.9462" r="0.2303"/>
<circle cx="79.9804" cy="80.3473" r="0.2248"/>
<circle cx="79.9804" cy="19.6527" r="0.2248"/>
<circle cx="61.2913" cy="91.1374" r="0.2248"/>
<circle cx="8.7283" cy="60.7901" r="0.2248"/>
<circle cx="61.2913" cy="8.8626" r="0.2248"/>
<circle cx="8.7283" cy="39.2099" r="0.2248"/>
<circle cx="74.9406" cy="73.1579" r="0.2227"/>
<circle cx="57.5850" cy="83.1782" r="0.2227"/>
<circle cx="74.9406" cy="26.8421" r="0.2227"/>
<circle cx="57.5850" cy="16.8218" r="0.2227"/>
<circle cx="17.4743" cy="60.0203" r="0.2227"/>
<circle cx="17.4743" cy="39.9797" r="0.2227"/>
<circle cx="90.2722" cy="73.1031" r="0.2221"/>
<circle cx="90.2722" cy="26.8969" r="0.2221"/>
<circle cx="49.8717" cy="96.4283" r="0.2221"/>
<circle cx="9.8560" cy="73.3252" r="0.2221"/>
<circle cx="49.8717" cy="3.5717" r="0.2221"/>
<circle cx="9.8560" cy="26.6748" r="0.2221"/>
<circle cx="96.0503" cy="55.9327" r="0.2197"/>
<circle cx="96.0503" cy="44.0673" r="0.2197"/>
<circle cx="32.1127" cy="92.8471" r="0.2197"/>
<circle cx="21.8370" cy="86.9144" r="0.2197"/>
<circle cx="32.1127" cy="7.1529" r="0.2197"/>
<circle cx="21.8370" cy="13.0856" r="0.2197"/>
<circle cx="89.5616" cy="66.3149" r="0.2175"/>
<circle cx="89.5616" cy="33.6851" r="0.2175"/>
<circle cx="44.3483" cy="92.4188" r="0.2175"/>
<circle cx="16.0901" cy="76.1039" r="0.2175"/>
<circle cx="44.3483" cy="7.5812" r="0.2175"/>
<circle cx="16.0901" cy="23.8961" r="0.2175"/>
<circle cx="67.9150" cy="70.6865" r="0.2155"/>
<circle cx="67.9150" cy="29.3135" r="0.2155"/>
<circle cx="58.9575" cy="75.8581" r="0.2155"/>
<circle cx="23.1275" cy="55.1716" r="0.2155"/>
<circle cx="58.9575" cy="24.1419" r="0.2155"/>
<circle cx="23.1275" cy="44.8284" r="0.2155"/>
<circle cx="57.7749" cy="63.4666" r="0.2138"/>
<circle cx="57.7749" cy="36.5334" r="0.2138"/>
<circle cx="34.4502" cy="50.0000" r="0.2138"/>
<circle cx="78.7557" cy="86.4691" r="0.2084"/>
<circle cx="67.2053" cy="93.1377" r="0.2084"/>
<circle cx="78.7557" cy="13.5309" r="0.2084"/>
<circle cx="67.2053" cy="6.8623" r="0.2084"/>
<circle cx="4.0390" cy="56.6686" r="0.2084"/>
<circle cx="4.0390" cy="43.3314" r="0.2084"/>
<circle cx="77.5700" cy="71.7057" r="0.2067"/>
<circle cx="77.5700" cy="28.2943" r="0.2067"/>
<circle cx="55.0127" cy="84.7292" r="0.2067"/>
<circle cx="17.4173" cy="63.0234" r="0.2067"/>
<circle cx="55.0127" cy="15.2708" r="0.2067"/>
<circle cx="17.4173" cy="36.9766" r="0.2067"/>
<circle cx="59.7284" cy="65.6321" r="0.2030"/>
<circle cx="59.7284" cy="34.3679" r="0.2030"/>
<circle cx="58.6735" cy="66.2411" r="0.2030"/>
<circle cx="31.5980" cy="50.6090" r="0.2030"/>
<circle cx="58.6735" cy="33.7589" r="0.2030"/>
<circle cx="31.5980" cy="49.3910" r="0.2030"/>
<circle cx="95.0480" cy="61.3198" r="0.2021"/>
<circle cx="95.0480" cy="38.6802" r="0.2021"/>
<circle cx="37.2792" cy="94.6726" r="0.2021"/>
<circle cx="17.6728" cy="83.3529" r="0.2021"/>
<circle cx="37.2792" cy="5.3274" r="0.2021"/>
<circle cx="17.6728" cy="16.6471" r="0.2021"/>
<circle cx="87.7844" cy="77.0183" r="0.2001"/>
<circle cx="87.7844" cy="22.9817" r="0.2001"/>
<circle cx="54.5064" cy="96.2314" r="0.2001"/>
<circle cx="7.7092" cy="69.2130" r="0.2001"/>
<circle cx="54.5064" cy="3.7686" r="0.2001"/>
<circle cx="7.7092" cy="30.7870" r="0.2001"/>
<circle cx="93.9461" cy="60.8738" r="0.1942"/>
<circle cx="93.9461" cy="39.1262" r="0.1942"/>
<circle cx="37.4440" cy="93.4954" r="0.1942"/>
<circle cx="18.6099" cy="82.6215" r="0.1942"/>
<circle cx="37.4440" cy="6.5046" r="0.1942"/>
<circle cx="18.6099" cy="17.3785" r="0.1942"/>
<circle cx="77.8026" cy="85.7283" r="0.1942"/>
<circle cx="67.0403" cy="91.9420" r="0.1942"/>
<circle cx="77.8026" cy="14.2717" r="0.1942"/>
<circle cx="67.0403" cy="8.0580" r="0.1942"/>
<circle cx="5.1570" cy="56.2136" r="0.1942"/>
<circle cx="5.1570" cy="43.7864" r="0.1942"/>
<circle cx="91.2555" cy="68.6409" r="0.1942"/>
<circle cx="91.2555" cy="31.3591" r="0.1942"/>
<circle cx="45.5157" cy="95.0488" r="0.1942"/>
<circle cx="13.2288" cy="76.4079" r="0.1942"/>
<circle cx="45.5157" cy="4.9512" r="0.1942"/>
<circle cx="13.2288" cy="23.5921" r="0.1942"/>
<circle cx="61.8282" cy="67.4236" r="0.1915"/>
<circle cx="61.8282" cy="32.5764" r="0.1915"/>
<circle cx="59.1752" cy="68.9553" r="0.1915"/>
<circle cx="28.9966" cy="51.5317" r="0.1915"/>
<circle cx="59.1752" cy="31.0447" r="0.1915"/>
<circle cx="28.9966" cy="48.4683" r="0.1915"/>
<circle cx="76.3662" cy="74.6491" r="0.1911"/>
<circle cx="58.1636" cy="85.1584" r="0.1911"/>
<circle cx="76.3662" cy="25.3509" r="0.1911"/>
<circle cx="58.1636" cy="14.8416" r="0.1911"/>
<circle cx="15.4702" cy="60.5093" r="0.1911"/>
<circle cx="15.4702" cy="39.4907" r="0.1911"/>
<circle cx="96.1297" cy="55.5300" r="0.1907"/>
<circle cx="96.1297" cy="44.4700" r="0.1907"/>
<circle cx="31.7243" cy="92.7145" r="0.1907"/>
<circle cx="22.1461" cy="87.1845" r="0.1907"/>
<circle cx="31.7243" cy="7.2855" r="0.1907"/>
<circle cx="22.1461" cy="12.8155" r="0.1907"/>
<circle cx="78.1956" cy="72.7145" r="0.1893"/>
<circle cx="78.1956" cy="27.2855" r="0.1893"/>
<circle cx="55.5735" cy="85.7753" r="0.1893"/>
<circle cx="16.2309" cy="63.0608" r="0.1893"/>
<circle cx="55.5735" cy="14.2247" r="0.1893"/>
<circle cx="16.2309" cy="36.9392" r="0.1893"/>
<circle cx="79.5006" cy="71.3676" r="0.1858"/>
<circle cx="79.5006" cy="28.6324" r="0.1858"/>
<circle cx="53.7546" cy="86.2320" r="0.1858"/>
<circle cx="16.7448" cy="64.8644" r="0.1858"/>
<circle cx="53.7546" cy="13.7680" r="0.1858"/>
<circle cx="16.7448" cy="35.1356" r="0.1858"/>
<circle cx="75.9092" cy="88.5711" r="0.1854"/>
<circle cx="70.4490" cy="91.7235" r="0.1854"/>
<circle cx="75.9092" cy="11.4289" r="0.1854"/>
<circle cx="70.4490" cy="8.2765" r="0.1854"/>
<circle cx="3.6419" cy="53.1524" r="0.1854"/>
<circle cx="3.6419" cy="46.8476" r="0.1854"/>
<circle cx="93.5745" cy="66.1331" r="0.1854"/>
<circle cx="93.5745" cy="33.8669" r="0.1854"/>
<circle cx="42.1844" cy="95.8032" r="0.1854"/>
<circle cx="14.2411" cy="79.6701" r="0.1854"/>
<circle cx="42.1844" cy="4.1968" r="0.1854"/>
<circle cx="14.2411" cy="20.3299" r="0.1854"/>
<circle cx="80.8718" cy="84.7290" r="0.1838"/>
<circle cx="64.6403" cy="94.1003" r="0.1838"/>
<circle cx="80.8718" cy="15.2710" r="0.1838"/>
<circle cx="64.6403" cy="5.8997" r="0.1838"/>
<circle cx="4.4879" cy="59.3713" r="0.1838"/>
<circle cx="4.4879" cy="40.6287" r="0.1838"/>
<circle cx="89.7658" cy="67.4924" r="0.1822"/>
<circle cx="89.7658" cy="32.5076" r="0.1822"/>
<circle cx="45.2660" cy="93.1844" r="0.1822"/>
<circle cx="14.9682" cy="75.6920" r="0.1822"/>
<circle cx="45.2660" cy="6.8156" r="0.1822"/>
<circle cx="14.9682" cy="24.3080" r="0.1822"/>
<circle cx="53.3624" cy="52.9120" r="0.1820"/>
<circle cx="53.3624" cy="47.0880" r="0.1820"/>
<circle cx="50.8406" cy="54.3679" r="0.1820"/>
<circle cx="45.7970" cy="51.4560" r="0.1820"/>
<circle cx="50.8406" cy="45.6321" r="0.1820"/>
<circle cx="45.7970" cy="48.5440" r="0.1820"/>
<circle cx="86.0064" cy="68.8545" r="0.1813"/>
<circle cx="86.0064" cy="31.1455" r="0.1813"/>
<circle cx="48.3253" cy="90.6097" r="0.1813"/>
<circle cx="15.6683" cy="71.7552" r="0.1813"/>
<circle cx="48.3253" cy="9.3903" r="0.1813"/>
<circle cx="15.6683" cy="28.2448" r="0.1813"/>
<circle cx="78.4702" cy="79.0069" r="0.1813"/>
<circle cx="60.8857" cy="89.1594" r="0.1813"/>
<circle cx="78.4702" cy="20.9931" r="0.1813"/>
<circle cx="60.8857" cy="10.8406" r="0.1813"/>
<circle cx="10.6442" cy="60.1524" r="0.1813"/>
<circle cx="10.6442" cy="39.8476" r="0.1813"/>
<circle cx="77.4556" cy="74.4101" r="0.1808"/>
<circle cx="77.4556" cy="25.5899" r="0.1808"/>
<circle cx="57.4120" cy="85.9824" r="0.1808"/>
<circle cx="15.1324" cy="61.5722" r="0.1808"/>
<circle cx="57.4120" cy="14.0176" r="0.1808"/>
<circle cx="15.1324" cy="38.4278" r="0.1808"/>
<circle cx="72.5438" cy="71.6928" r="0.1808"/>
<circle cx="72.5438" cy="28.3072" r="0.1808"/>
<circle cx="57.5146" cy="80.3699" r="0.1808"/>
<circle cx="19.9416" cy="58.6771" r="0.1808"/>
<circle cx="57.5146" cy="19.6301" r="0.1808"/>
<circle cx="19.9416" cy="41.3229" r="0.1808"/>
<circle cx="85.2173" cy="80.3186" r="0.1805"/>
<circle cx="85.2173" cy="19.6814" r="0.1805"/>
<circle cx="58.6480" cy="95.6584" r="0.1805"/>
<circle cx="6.1347" cy="65.3398" r="0.1805"/>
<circle cx="58.6480" cy="4.3416" r="0.1805"/>
<circle cx="6.1347" cy="34.6602" r="0.1805"/>
<circle cx="63.9949" cy="68.8533" r="0.1796"/>
<circle cx="63.9949" cy="31.1467" r="0.1796"/>
<circle cx="59.3299" cy="71.5466" r="0.1796"/>
<circle cx="26.6751" cy="52.6933" r="0.1796"/>
<circle cx="59.3299" cy="28.4534" r="0.1796"/>
<circle cx="26.6751" cy="47.3067" r="0.1796"/>
<circle cx="88.8644" cy="75.4848" r="0.1758"/>
<circle cx="88.8644" cy="24.5152" r="0.1758"/>
<circle cx="52.6383" cy="96.3999" r="0.1758"/>
<circle cx="8.4973" cy="70.9151" r="0.1758"/>
<circle cx="52.6383" cy="3.6001" r="0.1758"/>
<circle cx="8.4973" cy="29.0849" r="0.1758"/>
<circle cx="54.8682" cy="58.4320" r="0.1757"/>
<circle cx="54.8682" cy="41.5680" r="0.1757"/>
<circle cx="40.2636" cy="50.0000" r="0.1757"/>
<circle cx="91.7739" cy="70.3815" r="0.1698"/>
<circle cx="91.7739" cy="29.6185" r="0.1698"/>
<circle cx="46.7640" cy="96.3680" r="0.1698"/>
<circle cx="11.4621" cy="75.9865" r="0.1698"/>
<circle cx="46.7640" cy="3.6320" r="0.1698"/>
<circle cx="11.4621" cy="24.0135" r="0.1698"/>
<circle cx="91.1585" cy="64.6622" r="0.1685"/>
<circle cx="91.1585" cy="35.3378" r="0.1685"/>
<circle cx="42.1186" cy="92.9754" r="0.1685"/>
<circle cx="16.7229" cy="78.3132" r="0.1685"/>
<circle cx="42.1186" cy="7.0246" r="0.1685"/>
<circle cx="16.7229" cy="21.6868" r="0.1685"/>
<circle cx="66.1629" cy="69.9485" r="0.1676"/>
<circle cx="66.1629" cy="30.0515" r="0.1676"/>
<circle cx="59.1945" cy="73.9717" r="0.1676"/>
<circle cx="24.6427" cy="54.0232" r="0.1676"/>
<circle cx="59.1945" cy="26.0283" r="0.1676"/>
<circle cx="24.6427" cy="45.9768" r="0.1676"/>
<circle cx="63.8401" cy="71.6248" r="0.1676"/>
<circle cx="61.8076" cy="72.7983" r="0.1676"/>
<circle cx="63.8401" cy="28.3752" r="0.1676"/>
<circle cx="61.8076" cy="27.2017" r="0.1676"/>
<circle cx="24.3523" cy="51.1734" r="0.1676"/>
<circle cx="24.3523" cy="48.8266" r="0.1676"/>
<circle cx="96.1943" cy="55.1782" r="0.1670"/>
<circle cx="96.1943" cy="44.8218" r="0.1670"/>
<circle cx="31.3873" cy="92.5945" r="0.1670"/>
<circle cx="22.4184" cy="87.4163" r="0.1670"/>
<circle cx="31.3873" cy="7.4055" r="0.1670"/>
<circle cx="22.4184" cy="12.5837" r="0.1670"/>
<circle cx="57.5859" cy="63.1392" r="0.1642"/>
<circle cx="57.5859" cy="36.8608" r="0.1642"/>
<circle cx="34.8282" cy="50.0000" r="0.1642"/>
<circle cx="66.0536" cy="70.9360" r="0.1636"/>
<circle cx="60.1043" cy="74.3708" r="0.1636"/>
<circle cx="66.0536" cy="29.0640" r="0.1636"/>
<circle cx="60.1043" cy="25.6292" r="0.1636"/>
<circle cx="23.8421" cy="53.4348" r="0.1636"/>
<circle cx="23.8421" cy="46.5652" r="0.1636"/>
<circle cx="77.3378" cy="76.1244" r="0.1633"/>
<circle cx="58.9555" cy="86.7375" r="0.1633"/>
<circle cx="77.3378" cy="23.8756" r="0.1633"/>
<circle cx="58.9555" cy="13.2625" r="0.1633"/>
<circle cx="13.7067" cy="60.6130" r="0.1633"/>
<circle cx="13.7067" cy="39.3870" r="0.1633"/>
<circle cx="93.9468" cy="65.1584" r="0.1630"/>
<circle cx="93.9468" cy="34.8416" r="0.1630"/>
<circle cx="41.1542" cy="95.6383" r="0.1630"/>
<circle cx="14.8990" cy="80.4798" r="0.1630"/>
<circle cx="41.1542" cy="4.3617" r="0.1630"/>
<circle cx="14.8990" cy="19.5202" r="0.1630"/>
<circle cx="82.6543" cy="83.0877" r="0.1630"/>
<circle cx="62.3277" cy="94.8233" r="0.1630"/>
<circle cx="82.6543" cy="16.9123" r="0.1630"/>
<circle cx="62.3277" cy="5.1767" r="0.1630"/>
<circle cx="5.0180" cy="61.7356" r="0.1630"/>
<circle cx="5.0180" cy="38.2644" r="0.1630"/>
<circle cx="87.2505" cy="73.1115" r="0.1605"/>
<circle cx="87.2505" cy="26.8885" r="0.1605"/>
<circle cx="51.3899" cy="93.8156" r="0.1605"/>
<circle cx="11.3596" cy="70.7041" r="0.1605"/>
<circle cx="51.3899" cy="6.1844" r="0.1605"/>
<circle cx="11.3596" cy="29.2959" r="0.1605"/>
<circle cx="52.4011" cy="52.5593" r="0.1600"/>
<circle cx="51.0159" cy="53.3591" r="0.1600"/>
<circle cx="52.4011" cy="47.4407" r="0.1600"/>
<circle cx="51.0159" cy="46.6409" r="0.1600"/>
<circle cx="46.5830" cy="50.7998" r="0.1600"/>
<circle cx="46.5830" cy="49.2002" r="0.1600"/>
<circle cx="87.8944" cy="75.2443" r="0.1578"/>
<circle cx="87.8944" cy="24.7557" r="0.1578"/>
<circle cx="52.9150" cy="95.4397" r="0.1578"/>
<circle cx="9.1906" cy="70.1954" r="0.1578"/>
<circle cx="52.9150" cy="4.5603" r="0.1578"/>
<circle cx="9.1906" cy="29.8046" r="0.1578"/>
<circle cx="78.5093" cy="83.3899" r="0.1568"/>
<circle cx="64.6619" cy="91.3847" r="0.1568"/>
<circle cx="78.5093" cy="16.6101" r="0.1568"/>
<circle cx="64.6619" cy="8.6153" r="0.1568"/>
<circle cx="6.8288" cy="57.9948" r="0.1568"/>
<circle cx="6.8288" cy="42.0052" r="0.1568"/>
<circle cx="68.2817" cy="70.7459" r="0.1560"/>
<circle cx="68.2817" cy="29.2541" r="0.1560"/>
<circle cx="58.8256" cy="76.2054" r="0.1560"/>
<circle cx="22.8927" cy="55.4595" r="0.1560"/>
<circle cx="58.8256" cy="23.7946" r="0.1560"/>
<circle cx="22.8927" cy="44.5405" r="0.1560"/>
<circle cx="95.4181" cy="59.9499" r="0.1555"/>
<circle cx="95.4181" cy="40.0501" r="0.1555"/>
<circle cx="35.9078" cy="94.3081" r="0.1555"/>
<circle cx="18.6741" cy="84.3582" r="0.1555"/>
<circle cx="35.9078" cy="5.6919" r="0.1555"/>
<circle cx="18.6741" cy="15.6418" r="0.1555"/>
<circle cx="89.7632" cy="74.0974" r="0.1555"/>
<circle cx="89.7632" cy="25.9026" r="0.1555"/>
<circle cx="50.9873" cy="96.4847" r="0.1555"/>
<circle cx="9.2494" cy="72.3873" r="0.1555"/>
<circle cx="50.9873" cy="3.5153" r="0.1555"/>
<circle cx="9.2494" cy="27.6127" r="0.1555"/>
<circle cx="82.7070" cy="70.3940" r="0.1511"/>
<circle cx="82.7070" cy="29.6060" r="0.1511"/>
<circle cx="51.3083" cy="88.5221" r="0.1511"/>
<circle cx="15.9848" cy="68.1280" r="0.1511"/>
<circle cx="51.3083" cy="11.4779" r="0.1511"/>
<circle cx="15.9848" cy="31.8720" r="0.1511"/>
<circle cx="94.5515" cy="59.6457" r="0.1507"/>
<circle cx="94.5515" cy="40.3543" r="0.1507"/>
<circle cx="36.0777" cy="93.4055" r="0.1507"/>
<circle cx="19.3709" cy="83.7599" r="0.1507"/>
<circle cx="36.0777" cy="6.5945" r="0.1507"/>
<circle cx="19.3709" cy="16.2401" r="0.1507"/>
<circle cx="91.7693" cy="63.9301" r="0.1498"/>
<circle cx="91.7693" cy="36.0699" r="0.1498"/>
<circle cx="41.1791" cy="93.1384" r="0.1498"/>
<circle cx="17.0515" cy="79.2083" r="0.1498"/>
<circle cx="41.1791" cy="6.8616" r="0.1498"/>
<circle cx="17.0515" cy="20.7917" r="0.1498"/>
<circle cx="61.0585" cy="66.7597" r="0.1496"/>
<circle cx="61.0585" cy="33.2403" r="0.1496"/>
<circle cx="58.9851" cy="67.9568" r="0.1496"/>
<circle cx="29.9564" cy="51.1971" r="0.1496"/>
<circle cx="58.9851" cy="32.0432" r="0.1496"/>
<circle cx="29.9564" cy="48.8029" r="0.1496"/>
<circle cx="85.8259" cy="71.4796" r="0.1492"/>
<circle cx="85.8259" cy="28.5204" r="0.1492"/>
<circle cx="50.6890" cy="91.7660" r="0.1492"/>
<circle cx="13.4851" cy="70.2863" r="0.1492"/>
<circle cx="50.6890" cy="8.2340" r="0.1492"/>
<circle cx="13.4851" cy="29.7137" r="0.1492"/>
<circle cx="75.6533" cy="88.7859" r="0.1486"/>
<circle cx="70.7629" cy="91.6094" r="0.1486"/>
<circle cx="75.6533" cy="11.2141" r="0.1486"/>
<circle cx="70.7629" cy="8.3906" r="0.1486"/>
<circle cx="3.5838" cy="52.8235" r="0.1486"/>
<circle cx="3.5838" cy="47.1765" r="0.1486"/>
<circle cx="96.2476" cy="54.8682" r="0.1475"/>
<circle cx="96.2476" cy="45.1318" r="0.1475"/>
<circle cx="31.0921" cy="92.4857" r="0.1475"/>
<circle cx="22.6603" cy="87.6175" r="0.1475"/>
<circle cx="31.0921" cy="7.5143" r="0.1475"/>
<circle cx="22.6603" cy="12.3825" r="0.1475"/>
<circle cx="80.1504" cy="85.4047" r="0.1475"/>
<circle cx="65.5862" cy="93.8134" r="0.1475"/>
<circle cx="80.1504" cy="14.5953" r="0.1475"/>
<circle cx="65.5862" cy="6.1866" r="0.1475"/>
<circle cx="4.2634" cy="58.4086" r="0.1475"/>
<circle cx="4.2634" cy="41.5914" r="0.1475"/>
<circle cx="84.1654" cy="81.5510" r="0.1454"/>
<circle cx="84.1654" cy="18.4490" r="0.1454"/>
<circle cx="60.2412" cy="95.3636" r="0.1454"/>
<circle cx="5.5934" cy="63.8126" r="0.1454"/>
<circle cx="60.2412" cy="4.6364" r="0.1454"/>
<circle cx="5.5934" cy="36.1874" r="0.1454"/>
<circle cx="88.1440" cy="67.3862" r="0.1449"/>
<circle cx="88.1440" cy="32.6138" r="0.1449"/>
<circle cx="45.9848" cy="91.7268" r="0.1449"/>
<circle cx="15.8711" cy="74.3406" r="0.1449"/>
<circle cx="45.9848" cy="8.2732" r="0.1449"/>
<circle cx="15.8711" cy="25.6594" r="0.1449"/>
<circle cx="53.2439" cy="51.2966" r="0.1441"/>
<circle cx="53.2439" cy="48.7034" r="0.1441"/>
<circle cx="49.5009" cy="53.4576" r="0.1441"/>
<circle cx="47.2552" cy="52.1610" r="0.1441"/>
<circle cx="49.5009" cy="46.5424" r="0.1441"/>
<circle cx="47.2552" cy="47.8390" r="0.1441"/>
<circle cx="87.6339" cy="77.3260" r="0.1423"/>
<circle cx="87.6339" cy="22.6740" r="0.1423"/>
<circle cx="54.8480" cy="96.2549" r="0.1423"/>
<circle cx="7.5180" cy="68.9289" r="0.1423"/>
<circle cx="54.8480" cy="3.7451" r="0.1423"/>
<circle cx="7.5180" cy="31.0711" r="0.1423"/>
<circle cx="54.1532" cy="56.3472" r="0.1410"/>
<circle cx="54.1532" cy="43.6528" r="0.1410"/>
<circle cx="53.4203" cy="56.7703" r="0.1410"/>
<circle cx="42.4266" cy="50.4231" r="0.1410"/>
<circle cx="53.4203" cy="43.2297" r="0.1410"/>
<circle cx="42.4266" cy="49.5769" r="0.1410"/>
<circle cx="90.5184" cy="72.8396" r="0.1384"/>
<circle cx="90.5184" cy="27.1604" r="0.1384"/>
<circle cx="49.5205" cy="96.5097" r="0.1384"/>
<circle cx="9.9611" cy="73.6701" r="0.1384"/>
<circle cx="49.5205" cy="3.4903" r="0.1384"/>
<circle cx="9.9611" cy="26.3299" r="0.1384"/>
<circle cx="55.0251" cy="58.7038" r="0.1382"/>
<circle cx="55.0251" cy="41.2962" r="0.1382"/>
<circle cx="39.9498" cy="50.0000" r="0.1382"/>
<circle cx="84.0285" cy="69.8287" r="0.1367"/>
<circle cx="84.0285" cy="30.1713" r="0.1367"/>
<circle cx="50.1579" cy="89.3839" r="0.1367"/>
<circle cx="15.8136" cy="69.5552" r="0.1367"/>
<circle cx="50.1579" cy="10.6161" r="0.1367"/>
<circle cx="15.8136" cy="30.4448" r="0.1367"/>
<circle cx="72.2401" cy="71.6093" r="0.1342"/>
<circle cx="72.2401" cy="28.3907" r="0.1342"/>
<circle cx="57.5942" cy="80.0651" r="0.1342"/>
<circle cx="20.1657" cy="58.4558" r="0.1342"/>
<circle cx="57.5942" cy="19.9349" r="0.1342"/>
<circle cx="20.1657" cy="41.5442" r="0.1342"/>
<circle cx="92.8078" cy="68.2017" r="0.1338"/>
<circle cx="92.8078" cy="31.7983" r="0.1338"/>
<circle cx="44.3593" cy="96.1735" r="0.1338"/>
<circle cx="12.8329" cy="77.9718" r="0.1338"/>
<circle cx="44.3593" cy="3.8265" r="0.1338"/>
<circle cx="12.8329" cy="22.0282" r="0.1338"/>
<circle cx="77.7401" cy="87.3403" r="0.1338"/>
<circle cx="68.4676" cy="92.6938" r="0.1338"/>
<circle cx="77.7401" cy="12.6597" r="0.1338"/>
<circle cx="68.4676" cy="7.3062" r="0.1338"/>
<circle cx="3.7923" cy="55.3535" r="0.1338"/>
<circle cx="3.7923" cy="44.6465" r="0.1338"/>
<circle cx="64.8301" cy="69.2648" r="0.1338"/>
<circle cx="64.8301" cy="30.7352" r="0.1338"/>
<circle cx="59.2688" cy="72.4756" r="0.1338"/>
<circle cx="25.9011" cy="53.2108" r="0.1338"/>
<circle cx="59.2688" cy="27.5244" r="0.1338"/>
<circle cx="25.9011" cy="46.7892" r="0.1338"/>
<circle cx="83.7534" cy="80.8258" r="0.1329"/>
<circle cx="83.7534" cy="19.1742" r="0.1329"/>
<circle cx="59.8192" cy="94.6442" r="0.1329"/>
<circle cx="6.4274" cy="63.8184" r="0.1329"/>
<circle cx="59.8192" cy="5.3558" r="0.1329"/>
<circle cx="6.4274" cy="36.1816" r="0.1329"/>
<circle cx="89.2767" cy="73.3851" r="0.1329"/>
<circle cx="89.2767" cy="26.6149" r="0.1329"/>
<circle cx="50.6137" cy="95.7072" r="0.1329"/>
<circle cx="10.1096" cy="72.3221" r="0.1329"/>
<circle cx="50.6137" cy="4.2928" r="0.1329"/>
<circle cx="10.1096" cy="27.6779" r="0.1329"/>
<circle cx="96.2921" cy="54.5930" r="0.1312"/>
<circle cx="96.2921" cy="45.4070" r="0.1312"/>
<circle cx="30.8316" cy="92.3866" r="0.1312"/>
<circle cx="22.8763" cy="87.7937" r="0.1312"/>
<circle cx="30.8316" cy="7.6134" r="0.1312"/>
<circle cx="22.8763" cy="12.2063" r="0.1312"/>
<circle cx="85.4548" cy="80.1180" r="0.1304"/>
<circle cx="85.4548" cy="19.8820" r="0.1304"/>
<circle cx="58.3556" cy="95.7637" r="0.1304"/>
<circle cx="6.1897" cy="65.6457" r="0.1304"/>
<circle cx="58.3556" cy="4.2363" r="0.1304"/>
<circle cx="6.1897" cy="34.3543" r="0.1304"/>
<circle cx="57.4387" cy="62.8843" r="0.1301"/>
<circle cx="57.4387" cy="37.1157" r="0.1301"/>
<circle cx="35.1225" cy="50.0000" r="0.1301"/>
<circle cx="78.2847" cy="84.2156" r="0.1296"/>
<circle cx="65.4892" cy="91.6030" r="0.1296"/>
<circle cx="78.2847" cy="15.7844" r="0.1296"/>
<circle cx="65.4892" cy="8.3970" r="0.1296"/>
<circle cx="6.2261" cy="57.3875" r="0.1296"/>
<circle cx="6.2261" cy="42.6125" r="0.1296"/>
<circle cx="60.8950" cy="67.5782" r="0.1293"/>
<circle cx="59.7757" cy="68.2245" r="0.1293"/>
<circle cx="60.8950" cy="32.4218" r="0.1293"/>
<circle cx="59.7757" cy="31.7755" r="0.1293"/>
<circle cx="29.3293" cy="50.6463" r="0.1293"/>
<circle cx="29.3293" cy="49.3537" r="0.1293"/>
<circle cx="84.0836" cy="70.6234" r="0.1289"/>
<circle cx="84.0836" cy="29.3766" r="0.1289"/>
<circle cx="50.8186" cy="89.8289" r="0.1289"/>
<circle cx="15.0978" cy="69.2055" r="0.1289"/>
<circle cx="50.8186" cy="10.1711" r="0.1289"/>
<circle cx="15.0978" cy="30.7945" r="0.1289"/>
<circle cx="94.5154" cy="63.5155" r="0.1287"/>
<circle cx="94.5154" cy="36.4845" r="0.1287"/>
<circle cx="39.4471" cy="95.3092" r="0.1287"/>
<circle cx="16.0375" cy="81.7937" r="0.1287"/>
<circle cx="39.4471" cy="4.6908" r="0.1287"/>
<circle cx="16.0375" cy="18.2063" r="0.1287"/>
<circle cx="93.0991" cy="65.3390" r="0.1278"/>
<circle cx="93.0991" cy="34.6610" r="0.1278"/>
<circle cx="41.7344" cy="94.9944" r="0.1278"/>
<circle cx="15.1665" cy="79.6554" r="0.1278"/>
<circle cx="41.7344" cy="5.0056" r="0.1278"/>
<circle cx="15.1665" cy="20.3446" r="0.1278"/>
<circle cx="77.1583" cy="86.8136" r="0.1278"/>
<circle cx="68.3023" cy="91.9266" r="0.1278"/>
<circle cx="77.1583" cy="13.1864" r="0.1278"/>
<circle cx="68.3023" cy="8.0734" r="0.1278"/>
<circle cx="4.5393" cy="55.1130" r="0.1278"/>
<circle cx="4.5393" cy="44.8870" r="0.1278"/>
<circle cx="81.9351" cy="80.8992" r="0.1272"/>
<circle cx="81.9351" cy="19.1008" r="0.1272"/>
<circle cx="60.7919" cy="93.1062" r="0.1272"/>
<circle cx="7.2730" cy="62.2071" r="0.1272"/>
<circle cx="60.7919" cy="6.8938" r="0.1272"/>
<circle cx="7.2730" cy="37.7929" r="0.1272"/>
<circle cx="64.6707" cy="71.3447" r="0.1271"/>
<circle cx="61.1497" cy="73.3776" r="0.1271"/>
<circle cx="64.6707" cy="28.6553" r="0.1271"/>
<circle cx="61.1497" cy="26.6224" r="0.1271"/>
<circle cx="24.1796" cy="52.0328" r="0.1271"/>
<circle cx="24.1796" cy="47.9672" r="0.1271"/>
<circle cx="78.6769" cy="81.4237" r="0.1267"/>
<circle cx="62.8753" cy="90.5468" r="0.1267"/>
<circle cx="78.6769" cy="18.5763" r="0.1267"/>
<circle cx="62.8753" cy="9.4532" r="0.1267"/>
<circle cx="8.4478" cy="59.1230" r="0.1267"/>
<circle cx="8.4478" cy="40.8770" r="0.1267"/>
<circle cx="79.7875" cy="71.2443" r="0.1265"/>
<circle cx="79.7875" cy="28.7557" r="0.1265"/>
<circle cx="53.5044" cy="86.4189" r="0.1265"/>
<circle cx="16.7081" cy="65.1745" r="0.1265"/>
<circle cx="53.5044" cy="13.5811" r="0.1265"/>
<circle cx="16.7081" cy="34.8255" r="0.1265"/>
<circle cx="58.8981" cy="64.6602" r="0.1253"/>
<circle cx="58.8981" cy="35.3398" r="0.1253"/>
<circle cx="58.2470" cy="65.0361" r="0.1253"/>
<circle cx="32.8549" cy="50.3759" r="0.1253"/>
<circle cx="58.2470" cy="34.9639" r="0.1253"/>
<circle cx="32.8549" cy="49.6241" r="0.1253"/>
<circle cx="74.0427" cy="71.7539" r="0.1243"/>
<circle cx="74.0427" cy="28.2461" r="0.1243"/>
<circle cx="56.8181" cy="81.6985" r="0.1243"/>
<circle cx="19.1392" cy="59.9446" r="0.1243"/>
<circle cx="56.8181" cy="18.3015" r="0.1243"/>
<circle cx="19.1392" cy="40.0554" r="0.1243"/>
<circle cx="85.1920" cy="69.2422" r="0.1241"/>
<circle cx="85.1920" cy="30.7578" r="0.1241"/>
<circle cx="49.0682" cy="90.0983" r="0.1241"/>
<circle cx="15.7397" cy="70.8561" r="0.1241"/>
<circle cx="49.0682" cy="9.9017" r="0.1241"/>
<circle cx="15.7397" cy="29.1439" r="0.1241"/>
<circle cx="95.6737" cy="58.8721" r="0.1232"/>
<circle cx="95.6737" cy="41.1279" r="0.1232"/>
<circle cx="34.8466" cy="93.9906" r="0.1232"/>
<circle cx="19.4797" cy="85.1186" r="0.1232"/>
<circle cx="34.8466" cy="6.0094" r="0.1232"/>
<circle cx="19.4797" cy="14.8814" r="0.1232"/>
<circle cx="92.0209" cy="64.7035" r="0.1225"/>
<circle cx="92.0209" cy="35.2965" r="0.1225"/>
<circle cx="41.7232" cy="93.7429" r="0.1225"/>
<circle cx="16.2559" cy="79.0394" r="0.1225"/>
<circle cx="41.7232" cy="6.2571" r="0.1225"/>
<circle cx="16.2559" cy="20.9606" r="0.1225"/>
<circle cx="87.5642" cy="73.8932" r="0.1225"/>
<circle cx="87.5642" cy="26.1068" r="0.1225"/>
<circle cx="51.9100" cy="94.4781" r="0.1225"/>
<circle cx="10.5258" cy="70.5849" r="0.1225"/>
<circle cx="51.9100" cy="5.5219" r="0.1225"/>
<circle cx="10.5258" cy="29.4151" r="0.1225"/>
<circle cx="73.8183" cy="72.4581" r="0.1221"/>
<circle cx="57.5401" cy="81.8563" r="0.1221"/>
<circle cx="73.8183" cy="27.5419" r="0.1221"/>
<circle cx="57.5401" cy="18.1437" r="0.1221"/>
<circle cx="18.6416" cy="59.3982" r="0.1221"/>
<circle cx="18.6416" cy="40.6018" r="0.1221"/>
<circle cx="75.4433" cy="88.9561" r="0.1217"/>
<circle cx="71.0153" cy="91.5126" r="0.1217"/>
<circle cx="75.4433" cy="11.0439" r="0.1217"/>
<circle cx="71.0153" cy="8.4874" r="0.1217"/>
<circle cx="3.5414" cy="52.5565" r="0.1217"/>
<circle cx="3.5414" cy="47.4435" r="0.1217"/>
<circle cx="92.7290" cy="62.6356" r="0.1203"/>
<circle cx="92.7290" cy="37.3644" r="0.1203"/>
<circle cx="39.5783" cy="93.3222" r="0.1203"/>
<circle cx="17.6927" cy="80.6865" r="0.1203"/>
<circle cx="39.5783" cy="6.6778" r="0.1203"/>
<circle cx="17.6927" cy="19.3135" r="0.1203"/>
<circle cx="94.9762" cy="58.6557" r="0.1202"/>
<circle cx="94.9762" cy="41.3443" r="0.1202"/>
<circle cx="35.0079" cy="93.2784" r="0.1202"/>
<circle cx="20.0159" cy="84.6227" r="0.1202"/>
<circle cx="35.0079" cy="6.7216" r="0.1202"/>
<circle cx="20.0159" cy="15.3773" r="0.1202"/>
<circle cx="79.9841" cy="84.6227" r="0.1202"/>
<circle cx="64.9921" cy="93.2784" r="0.1202"/>
<circle cx="79.9841" cy="15.3773" r="0.1202"/>
<circle cx="64.9921" cy="6.7216" r="0.1202"/>
<circle cx="5.0238" cy="58.6557" r="0.1202"/>
<circle cx="5.0238" cy="41.3443" r="0.1202"/>
<circle cx="78.3414" cy="78.7349" r="0.1197"/>
<circle cx="60.7144" cy="88.9118" r="0.1197"/>
<circle cx="78.3414" cy="21.2651" r="0.1197"/>
<circle cx="60.7144" cy="11.0882" r="0.1197"/>
<circle cx="10.9442" cy="60.1769" r="0.1197"/>
<circle cx="10.9442" cy="39.8231" r="0.1197"/>
<circle cx="83.2759" cy="82.5246" r="0.1196"/>
<circle cx="83.2759" cy="17.4754" r="0.1196"/>
</svg>