<svg version="1.0" xmlns="http://www.w3.org/2000/svg" height="100" width="100">

<style>
    circle {
    fill: white;
    }
</style>
<rect width="100%" height="100%" fill="black"/>
<circle cx="90.8920" cy="17.1731" r="9.1080"/>
<circle cx="98.0029" cy="46.3456" r="1.9971"/>
<circle cx="23.6815" cy="4.5447" r="4.5447"/>
<circle cx="13.8554" cy="39.3767" r="13.8554"/>
<circle cx="68.2897" cy="38.1867" r="21.7535"/>
<circle cx="28.5821" cy="99.9081" r="0.0919"/>
<circle cx="72.5591" cy="0.1409" r="0.1409"/>
<circle cx="30.6666" cy="32.4408" r="4.3305"/>
<circle cx="86.8580" cy="56.4773" r="4.3104"/>
<circle cx="13.0131" cy="77.0703" r="13.0131"/>
<circle cx="51.1313" cy="85.9779" r="14.0221"/>
<circle cx="43.9410" cy="45.4993" r="3.6696"/>
<circle cx="95.9909" cy="35.9153" r="4.0091"/>
<circle cx="50.1215" cy="50.5762" r="0.2370"/>
<circle cx="76.8199" cy="93.2987" r="6.7013"/>
<circle cx="31.5561" cy="58.1602" r="11.9543"/>
<circle cx="41.1711" cy="3.0733" r="3.0733"/>
<circle cx="58.0239" cy="65.3936" r="7.3258"/>
<circle cx="18.6980" cy="15.6626" r="7.6391"/>
<circle cx="89.6373" cy="89.2843" r="6.7301"/>
<circle cx="98.6501" cy="60.7637" r="1.3499"/>
<circle cx="1.8574" cy="3.3723" r="1.8574"/>
<circle cx="45.1354" cy="15.1672" r="9.6538"/>
<circle cx="95.3599" cy="85.1828" r="0.3105"/>
<circle cx="60.4590" cy="7.9319" r="7.2920"/>
<circle cx="36.1387" cy="44.5492" r="2.4075"/>
<circle cx="29.8047" cy="45.4467" r="0.8793"/>
<circle cx="0.7029" cy="8.2977" r="0.7029"/>
<circle cx="1.8539" cy="53.6041" r="1.8539"/>
<circle cx="79.7599" cy="66.8367" r="8.2475"/>
<circle cx="20.0721" cy="53.2723" r="0.5267"/>
<circle cx="90.8843" cy="35.2778" r="1.0276"/>
<circle cx="73.7353" cy="8.0076" r="5.9846"/>
<circle cx="96.3401" cy="0.5724" r="0.5724"/>
<circle cx="4.1230" cy="13.8550" r="4.1230"/>
<circle cx="29.6105" cy="39.8161" r="1.9059"/>
<circle cx="32.3585" cy="76.0972" r="6.0008"/>
<circle cx="13.6274" cy="96.7497" r="3.2503"/>
<circle cx="47.2341" cy="58.0702" r="3.7240"/>
<circle cx="64.3635" cy="74.1831" r="3.5114"/>
<circle cx="91.8892" cy="77.2051" r="5.5572"/>
<circle cx="1.8328" cy="88.0176" r="1.8328"/>
<circle cx="93.0762" cy="59.2171" r="2.4846"/>
<circle cx="95.9665" cy="67.7636" r="4.0335"/>
<circle cx="59.2941" cy="0.0894" r="0.0894"/>
<circle cx="97.8413" cy="93.9011" r="2.1587"/>
<circle cx="1.5869" cy="99.3044" r="0.6956"/>
<circle cx="5.8619" cy="17.8525" r="0.2363"/>
<circle cx="88.0997" cy="82.3255" r="0.3965"/>
<circle cx="37.9088" cy="0.5361" r="0.5361"/>
<circle cx="29.3315" cy="5.8349" r="1.2508"/>
<circle cx="31.3850" cy="3.8228" r="1.6242"/>
<circle cx="83.6322" cy="5.8381" r="4.1473"/>
<circle cx="77.6807" cy="1.7308" r="1.4292"/>
<circle cx="25.9061" cy="28.5815" r="1.7979"/>
<circle cx="29.2224" cy="90.7390" r="8.1901"/>
<circle cx="87.0415" cy="51.3115" r="0.8587"/>
<circle cx="69.4968" cy="88.4531" r="2.0798"/>
<circle cx="83.6865" cy="10.5542" r="0.5691"/>
<circle cx="91.9061" cy="66.2671" r="0.2939"/>
<circle cx="4.0056" cy="27.6916" r="1.4272"/>
<circle cx="5.5279" cy="3.7123" r="1.8288"/>
<circle cx="94.4878" cy="94.2259" r="0.1943"/>
<circle cx="43.0948" cy="27.3405" r="2.6893"/>
<circle cx="31.7652" cy="17.6336" r="3.9420"/>
<circle cx="40.5216" cy="25.4346" r="0.5129"/>
<circle cx="3.5758" cy="55.1623" r="0.4684"/>
<circle cx="39.7666" cy="94.3861" r="0.1149"/>
<circle cx="37.5484" cy="91.4633" r="0.1674"/>
<circle cx="97.5682" cy="79.6068" r="0.6088"/>
<circle cx="95.4430" cy="5.5074" r="3.4140"/>
<circle cx="90.6582" cy="64.9794" r="1.4993"/>
<circle cx="75.2306" cy="15.2962" r="1.4558"/>
<circle cx="79.3290" cy="4.2449" r="0.4414"/>
<circle cx="22.8022" cy="0.0138" r="0.0138"/>
<circle cx="45.3288" cy="65.0194" r="3.4320"/>
<circle cx="99.1884" cy="12.7506" r="0.2936"/>
<circle cx="3.8686" cy="0.1966" r="0.1966"/>
<circle cx="76.0637" cy="84.5255" r="2.1044"/>
<circle cx="97.8116" cy="55.1468" r="2.1884"/>
<circle cx="2.9387" cy="59.2499" r="2.9387"/>
<circle cx="81.8363" cy="78.5961" r="3.6938"/>
<circle cx="74.0214" cy="0.8389" r="0.8389"/>
<circle cx="11.8574" cy="10.7857" r="0.7620"/>
<circle cx="42.7042" cy="70.4632" r="2.6115"/>
<circle cx="3.2982" cy="21.1298" r="3.1984"/>
<circle cx="25.4635" cy="11.1254" r="0.5070"/>
<circle cx="38.5114" cy="96.4793" r="2.3259"/>
<circle cx="96.6053" cy="61.5343" r="0.8353"/>
<circle cx="30.3723" cy="70.2932" r="0.1337"/>
<circle cx="37.4739" cy="8.3747" r="0.5851"/>
<circle cx="15.8713" cy="55.8286" r="2.7197"/>
<circle cx="55.6040" cy="13.4690" r="0.0721"/>
<circle cx="96.9199" cy="62.4579" r="0.1404"/>
<circle cx="89.1822" cy="46.7805" r="0.8373"/>
<circle cx="23.3195" cy="67.2000" r="0.2752"/>
<circle cx="68.0432" cy="91.2113" r="1.0381"/>
<circle cx="35.0929" cy="20.6602" r="0.5563"/>
<circle cx="43.8460" cy="39.6658" r="2.1647"/>
<circle cx="71.3582" cy="73.8045" r="2.6676"/>
<circle cx="16.0579" cy="2.8987" r="2.8987"/>
<circle cx="47.6267" cy="47.8882" r="0.7226"/>
<circle cx="18.8120" cy="59.8538" r="0.9019"/>
<circle cx="71.2276" cy="98.8015" r="1.1444"/>
<circle cx="28.3972" cy="6.8754" r="0.1477"/>
<circle cx="0.8149" cy="30.7021" r="0.8149"/>
<circle cx="69.0960" cy="1.5153" r="1.5153"/>
<circle cx="42.2913" cy="36.3038" r="1.5393"/>
<circle cx="95.7818" cy="86.3002" r="0.1007"/>
<circle cx="4.3180" cy="0.3293" r="0.2720"/>
<circle cx="13.4345" cy="21.2688" r="0.0508"/>
<circle cx="46.5743" cy="33.5182" r="0.4581"/>
<circle cx="9.2259" cy="3.6732" r="1.8694"/>
<circle cx="88.3840" cy="5.9261" r="0.6053"/>
<circle cx="49.4578" cy="69.3647" r="2.1160"/>
<circle cx="3.6381" cy="92.9785" r="3.4463"/>
<circle cx="63.3000" cy="98.5537" r="1.4463"/>
<circle cx="80.5964" cy="86.4883" r="1.0861"/>
<circle cx="97.9933" cy="49.5040" r="1.1613"/>
<circle cx="8.4783" cy="52.7438" r="0.5527"/>
<circle cx="51.3677" cy="55.0281" r="1.4084"/>
<circle cx="3.5796" cy="6.5153" r="1.5849"/>
<circle cx="33.4394" cy="2.5832" r="0.7752"/>
<circle cx="38.9413" cy="37.9929" r="2.2124"/>
<circle cx="28.0247" cy="23.2768" r="2.8284"/>
<circle cx="35.8180" cy="10.3019" r="0.8573"/>
<circle cx="69.8011" cy="96.7223" r="1.1079"/>
<circle cx="28.9000" cy="10.3109" r="3.0247"/>
<circle cx="4.1019" cy="51.8683" r="0.9863"/>
<circle cx="68.9230" cy="80.1584" r="4.0048"/>
<circle cx="8.6291" cy="16.2794" r="0.9939"/>
<circle cx="74.1791" cy="79.6786" r="1.2732"/>
<circle cx="76.5976" cy="76.7664" r="1.8552"/>
<circle cx="35.4474" cy="32.2127" r="0.4557"/>
<circle cx="67.9705" cy="0.2312" r="0.1922"/>
<circle cx="68.4305" cy="75.9766" r="0.2059"/>
<circle cx="91.5743" cy="46.4438" r="1.5784"/>
<circle cx="97.0826" cy="31.1829" r="0.8476"/>
<circle cx="86.9882" cy="81.9874" r="0.7652"/>
<circle cx="75.0691" cy="59.5716" r="0.4003"/>
<circle cx="99.4736" cy="88.1678" r="0.5264"/>
<circle cx="33.7685" cy="6.8374" r="2.2188"/>
<circle cx="23.1025" cy="27.4008" r="1.2441"/>
<circle cx="94.6392" cy="50.8294" r="2.4452"/>
<circle cx="7.0656" cy="56.2675" r="2.1530"/>
<circle cx="66.7476" cy="93.7271" r="1.7917"/>
<circle cx="98.6220" cy="24.5271" r="1.3780"/>
<circle cx="53.0544" cy="20.7809" r="0.0531"/>
<circle cx="84.5108" cy="1.2674" r="0.5071"/>
<circle cx="71.9044" cy="99.7389" r="0.0118"/>
<circle cx="31.2507" cy="27.5720" r="0.5733"/>
<circle cx="34.3366" cy="4.4645" r="0.2212"/>
<circle cx="40.5824" cy="26.3508" r="0.0111"/>
<circle cx="6.4619" cy="25.0982" r="1.8768"/>
<circle cx="63.1364" cy="78.3118" r="0.2219"/>
<circle cx="40.0826" cy="72.9098" r="0.9744"/>
<circle cx="98.6260" cy="32.3974" r="0.3862"/>
<circle cx="32.0169" cy="42.2687" r="1.5302"/>
<circle cx="65.0707" cy="0.7740" r="0.7740"/>
<circle cx="14.0585" cy="58.2953" r="0.3415"/>
<circle cx="39.6455" cy="23.3304" r="0.1837"/>
<circle cx="16.4402" cy="23.4488" r="0.4679"/>
<circle cx="28.6074" cy="81.5697" r="0.6338"/>
<circle cx="97.2710" cy="85.3526" r="1.6082"/>
<circle cx="85.5483" cy="95.2346" r="0.4898"/>
<circle cx="8.3309" cy="63.1524" r="1.6712"/>
<circle cx="23.9934" cy="69.2611" r="0.4609"/>
<circle cx="11.0464" cy="58.5889" r="2.4551"/>
<circle cx="67.9862" cy="99.7039" r="0.2961"/>
<circle cx="18.6896" cy="98.2062" r="1.7938"/>
<circle cx="15.3451" cy="61.6088" r="2.6232"/>
<circle cx="70.3054" cy="66.5823" r="1.2104"/>
<circle cx="79.8290" cy="12.7416" r="1.7318"/>
<circle cx="37.7481" cy="70.1201" r="1.5136"/>
<circle cx="65.9182" cy="88.4969" r="0.9779"/>
<circle cx="12.9928" cy="55.9272" r="0.1605"/>
<circle cx="37.7465" cy="93.1545" r="0.6696"/>
<circle cx="95.2031" cy="43.3968" r="2.0692"/>
<circle cx="0.3824" cy="84.0687" r="0.3824"/>
<circle cx="21.4399" cy="97.1872" r="1.1393"/>
<circle cx="37.4963" cy="23.8180" r="1.8871"/>
<circle cx="6.0687" cy="63.4639" r="0.6123"/>
<circle cx="18.5532" cy="7.6030" r="0.4218"/>
<circle cx="7.4310" cy="96.1799" r="1.5170"/>
<circle cx="44.5599" cy="3.5543" r="0.3494"/>
<circle cx="26.1306" cy="78.7135" r="0.2070"/>
<circle cx="96.7861" cy="30.3369" r="0.0489"/>
<circle cx="82.6075" cy="82.2658" r="0.0562"/>
<circle cx="63.9489" cy="96.4075" r="0.7958"/>
<circle cx="67.1793" cy="88.6679" r="0.2477"/>
<circle cx="79.0960" cy="18.4266" r="0.7684"/>
<circle cx="34.8508" cy="38.2041" r="1.8835"/>
<circle cx="86.5914" cy="98.2192" r="1.7808"/>
<circle cx="64.5239" cy="81.4124" r="0.1274"/>
<circle cx="90.5955" cy="30.7064" r="1.7732"/>
<circle cx="25.7572" cy="81.7086" r="0.5488"/>
<circle cx="34.1765" cy="25.5848" r="1.8736"/>
<circle cx="54.4113" cy="2.7024" r="0.7030"/>
<circle cx="46.4777" cy="37.1784" r="0.0818"/>
<circle cx="21.6865" cy="25.2595" r="1.3230"/>
<circle cx="94.9480" cy="93.7473" r="0.2069"/>
<circle cx="11.5036" cy="93.2308" r="0.8599"/>
<circle cx="88.2186" cy="25.9062" r="0.0251"/>
<circle cx="94.4420" cy="27.1829" r="1.5126"/>
<circle cx="69.1303" cy="68.6006" r="1.1250"/>
<circle cx="99.7236" cy="20.1297" r="0.2054"/>
<circle cx="1.5851" cy="84.6128" r="0.6796"/>
<circle cx="40.1258" cy="23.6064" r="0.1602"/>
<circle cx="4.3896" cy="98.0258" r="1.6566"/>
<circle cx="38.5514" cy="74.1306" r="0.4969"/>
<circle cx="23.0017" cy="97.1278" r="0.4236"/>
<circle cx="96.1537" cy="1.8096" r="0.3515"/>
<circle cx="33.8468" cy="0.8152" r="0.8152"/>
<circle cx="64.0331" cy="1.4521" r="0.1081"/>
<circle cx="37.8370" cy="27.1825" r="1.4945"/>
<circle cx="6.2189" cy="0.7784" r="0.7784"/>
<circle cx="93.0241" cy="62.4309" r="0.7297"/>
<circle cx="34.1643" cy="41.3095" r="0.8217"/>
<circle cx="15.8841" cy="64.3612" r="0.0162"/>
<circle cx="57.2542" cy="0.3419" r="0.3419"/>
<circle cx="91.7365" cy="99.5264" r="0.4736"/>
<circle cx="73.9716" cy="81.0411" r="0.1051"/>
<circle cx="51.2293" cy="24.5749" r="0.0717"/>
<circle cx="16.5412" cy="6.2346" r="0.4721"/>
<circle cx="84.6428" cy="10.1743" r="0.2748"/>
<circle cx="0.0217" cy="73.2280" r="0.0217"/>
<circle cx="5.3647" cy="7.9943" r="0.7333"/>
<circle cx="89.4608" cy="2.6735" r="2.4850"/>
<circle cx="81.0590" cy="11.2292" r="0.2175"/>
<circle cx="47.0316" cy="30.7486" r="0.7684"/>
<circle cx="70.0850" cy="85.1104" r="1.0817"/>
<circle cx="26.9138" cy="15.3259" r="0.5837"/>
<circle cx="60.6208" cy="16.0149" r="0.7926"/>
<circle cx="84.5029" cy="0.6618" r="0.0986"/>
<circle cx="99.0175" cy="77.9909" r="0.9825"/>
<circle cx="77.9872" cy="13.9854" r="0.4906"/>
<circle cx="90.3586" cy="28.1660" r="0.7782"/>
<circle cx="83.7144" cy="81.9918" r="0.1868"/>
<circle cx="37.7448" cy="79.5423" r="0.3930"/>
<circle cx="14.1446" cy="23.0576" r="1.0453"/>
<circle cx="81.3160" cy="99.2962" r="0.7038"/>
<circle cx="33.9357" cy="83.9418" r="0.0813"/>
<circle cx="99.8793" cy="14.8327" r="0.1207"/>
<circle cx="55.7360" cy="57.4937" r="0.8988"/>
<circle cx="9.5517" cy="25.7530" r="0.4318"/>
<circle cx="3.6847" cy="8.9052" r="0.8074"/>
<circle cx="91.3564" cy="41.8745" r="1.6062"/>
<circle cx="97.7723" cy="81.0661" r="0.8647"/>
<circle cx="99.9840" cy="28.6810" r="0.0160"/>
<circle cx="28.1766" cy="42.1575" r="0.7333"/>
<circle cx="99.1488" cy="42.4222" r="0.8512"/>
<circle cx="14.1322" cy="91.3250" r="1.2855"/>
<circle cx="2.6310" cy="63.0192" r="0.8431"/>
<circle cx="66.6032" cy="14.1383" r="1.4413"/>
<circle cx="11.1658" cy="90.9261" r="0.9654"/>
<circle cx="13.5432" cy="7.1091" r="2.0056"/>
<circle cx="9.3900" cy="55.2729" r="0.3752"/>
<circle cx="67.5856" cy="96.1349" r="0.7578"/>
<circle cx="1.4861" cy="24.7470" r="0.8474"/>
<circle cx="12.2394" cy="2.7657" r="0.9222"/>
<circle cx="77.3295" cy="16.6703" r="1.0530"/>
<circle cx="68.4168" cy="71.8024" r="0.8905"/>
<circle cx="48.9454" cy="5.4019" r="0.8284"/>
<circle cx="50.9804" cy="71.6587" r="0.2980"/>
<circle cx="5.4140" cy="50.6882" r="0.2587"/>
<circle cx="5.9778" cy="27.8056" r="0.1427"/>
<circle cx="1.9166" cy="1.4208" r="0.0949"/>
<circle cx="96.3479" cy="88.0411" r="0.0946"/>
<circle cx="43.7492" cy="51.5649" r="1.9082"/>
<circle cx="31.2419" cy="26.4680" r="0.5308"/>
<circle cx="97.4904" cy="58.5598" r="1.1405"/>
<circle cx="56.2092" cy="18.4137" r="1.4178"/>
<circle cx="54.9003" cy="0.3140" r="0.3140"/>
<circle cx="91.1453" cy="6.2774" r="0.9521"/>
<circle cx="68.1655" cy="70.7691" r="0.1729"/>
<circle cx="99.7662" cy="75.9354" r="0.2338"/>
<circle cx="37.6560" cy="72.3863" r="0.4672"/>
<circle cx="47.7864" cy="45.4650" r="0.0033"/>
<circle cx="65.0412" cy="92.4588" r="0.3344"/>
<circle cx="29.7079" cy="0.8474" r="0.8474"/>
<circle cx="87.1867" cy="0.7620" r="0.4858"/>
<circle cx="67.8765" cy="74.3587" r="0.0060"/>
<circle cx="6.8303" cy="2.4058" r="0.0161"/>
<circle cx="0.0633" cy="36.4560" r="0.0633"/>
<circle cx="25.6990" cy="72.7594" r="0.3853"/>
<circle cx="1.9991" cy="30.0203" r="0.5516"/>
<circle cx="32.5871" cy="40.5118" r="0.3169"/>
<circle cx="52.6836" cy="70.9213" r="0.3602"/>
<circle cx="66.0095" cy="64.7149" r="0.6886"/>
<circle cx="95.0437" cy="39.9890" r="0.1733"/>
<circle cx="68.2977" cy="96.9778" r="0.3456"/>
<circle cx="94.7147" cy="46.1595" r="0.7364"/>
<circle cx="58.1161" cy="17.9517" r="0.5443"/>
<circle cx="40.9103" cy="24.1100" r="0.2368"/>
<circle cx="2.8956" cy="24.4772" r="0.1731"/>
<circle cx="17.4180" cy="6.9851" r="0.6820"/>
<circle cx="78.8120" cy="82.0283" r="0.8808"/>
<circle cx="51.4193" cy="59.9709" r="0.8725"/>
<circle cx="0.0781" cy="90.3605" r="0.0781"/>
<circle cx="99.8959" cy="64.5222" r="0.1041"/>
<circle cx="38.2486" cy="79.9059" r="0.2199"/>
<circle cx="48.9155" cy="62.9844" r="0.6917"/>
<circle cx="91.5604" cy="44.1387" r="0.6672"/>
<circle cx="20.8852" cy="98.5709" r="0.3514"/>
<circle cx="67.7606" cy="70.9523" r="0.1834"/>
<circle cx="37.6959" cy="39.9291" r="0.0898"/>
<circle cx="78.6019" cy="3.0467" r="0.1771"/>
<circle cx="57.4111" cy="1.0678" r="0.2183"/>
<circle cx="20.5926" cy="99.1630" r="0.3091"/>
<circle cx="16.1846" cy="24.8856" r="0.8217"/>
<circle cx="86.7091" cy="80.9873" r="0.2731"/>
<circle cx="95.4437" cy="95.0354" r="0.4937"/>
<circle cx="11.8507" cy="24.6144" r="1.0424"/>
<circle cx="0.4893" cy="33.6177" r="0.4893"/>
<circle cx="6.6219" cy="9.0043" r="0.8794"/>
<circle cx="41.0061" cy="31.7139" r="2.1573"/>
<circle cx="94.3976" cy="40.9636" r="0.4938"/>
<circle cx="93.6937" cy="56.1072" r="0.6860"/>
<circle cx="79.8933" cy="82.5083" r="0.3023"/>
<circle cx="9.1767" cy="90.8999" r="1.0239"/>
<circle cx="1.2294" cy="45.6557" r="0.2457"/>
<circle cx="1.0252" cy="9.5849" r="0.6241"/>
<circle cx="85.2537" cy="95.6667" r="0.0332"/>
<circle cx="88.1452" cy="97.1961" r="0.0796"/>
<circle cx="82.4358" cy="88.0027" r="0.5846"/>
<circle cx="21.7629" cy="0.1798" r="0.1798"/>
<circle cx="93.7155" cy="47.0846" r="0.6253"/>
<circle cx="26.3980" cy="75.1626" r="0.0325"/>
<circle cx="66.5220" cy="98.6072" r="1.3928"/>
<circle cx="32.6625" cy="44.3717" r="0.6696"/>
<circle cx="99.5052" cy="61.8197" r="0.0089"/>
<circle cx="69.3746" cy="90.6352" r="0.1058"/>
<circle cx="14.9683" cy="58.6681" r="0.2599"/>
<circle cx="65.9402" cy="69.5418" r="1.3904"/>
<circle cx="33.0389" cy="21.8895" r="0.5005"/>
<circle cx="75.3570" cy="59.0693" r="0.1786"/>
<circle cx="83.9252" cy="83.7196" r="1.2445"/>
<circle cx="20.2430" cy="93.5426" r="1.2168"/>
<circle cx="95.4236" cy="40.1430" r="0.2366"/>
<circle cx="95.8663" cy="53.2471" r="0.2660"/>
<circle cx="39.6129" cy="34.3197" r="0.7975"/>
<circle cx="2.2341" cy="0.3824" r="0.3824"/>
<circle cx="24.2629" cy="99.2684" r="0.7316"/>
<circle cx="73.0020" cy="82.9294" r="0.9264"/>
<circle cx="65.1512" cy="81.5676" r="0.0217"/>
<circle cx="80.5370" cy="57.4232" r="1.0508"/>
<circle cx="12.4965" cy="5.0863" r="0.2719"/>
<circle cx="12.7808" cy="1.0012" r="0.8881"/>
<circle cx="44.9216" cy="34.0953" r="1.2925"/>
<circle cx="27.8273" cy="28.5962" r="0.1233"/>
<circle cx="10.5670" cy="14.0049" r="0.6592"/>
<circle cx="19.8926" cy="53.7968" r="0.0276"/>
<circle cx="1.7433" cy="67.6547" r="1.6723"/>
<circle cx="36.9541" cy="40.3749" r="0.7756"/>
<circle cx="43.8130" cy="54.4693" r="0.8462"/>
<circle cx="84.8850" cy="97.0535" r="0.2859"/>
<circle cx="94.2153" cy="83.3781" r="0.7425"/>
<circle cx="73.1962" cy="15.7944" r="0.6387"/>
<circle cx="89.9519" cy="44.1642" r="0.7183"/>
<circle cx="3.2386" cy="99.6862" r="0.3138"/>
<circle cx="90.2942" cy="62.3644" r="1.1409"/>
<circle cx="26.6894" cy="72.3201" r="0.6982"/>
<circle cx="53.1143" cy="5.9778" r="0.3081"/>
<circle cx="26.3392" cy="99.9751" r="0.0249"/>
<circle cx="55.8900" cy="99.7637" r="0.2363"/>
<circle cx="52.5491" cy="0.2224" r="0.2224"/>
<circle cx="42.2261" cy="73.5498" r="0.5119"/>
<circle cx="94.3849" cy="62.2267" r="0.6464"/>
<circle cx="83.1175" cy="10.8362" r="0.0659"/>
<circle cx="98.5554" cy="39.5604" r="0.4477"/>
<circle cx="6.9753" cy="0.5097" r="0.0243"/>
<circle cx="67.1339" cy="60.5045" r="0.5942"/>
<circle cx="28.7172" cy="1.3964" r="0.2852"/>
<circle cx="7.1575" cy="60.1518" r="1.3753"/>
<circle cx="69.4946" cy="92.3252" r="0.6883"/>
<circle cx="3.5589" cy="67.1174" r="0.2212"/>
<circle cx="39.0955" cy="93.8644" r="0.3535"/>
<circle cx="70.7432" cy="99.8841" r="0.0416"/>
<circle cx="64.8235" cy="70.5195" r="0.0939"/>
<circle cx="94.9543" cy="99.9013" r="0.0987"/>
<circle cx="89.0842" cy="0.0167" r="0.0167"/>
<circle cx="91.8382" cy="32.8665" r="0.7189"/>
<circle cx="94.1289" cy="99.8825" r="0.1175"/>
<circle cx="14.7064" cy="92.8762" r="0.3686"/>
<circle cx="91.8695" cy="0.4655" r="0.4655"/>
<circle cx="95.6591" cy="72.7799" r="0.2561"/>
<circle cx="33.8133" cy="39.9764" r="0.1702"/>
<circle cx="51.2453" cy="58.1215" r="0.2875"/>
<circle cx="43.5132" cy="0.3148" r="0.3148"/>
<circle cx="32.2994" cy="28.0091" r="0.3925"/>
<circle cx="36.6462" cy="82.0343" r="0.9903"/>
<circle cx="90.3750" cy="51.3122" r="1.8462"/>
<circle cx="10.3824" cy="12.1031" r="1.2157"/>
<circle cx="38.3492" cy="75.0187" r="0.0863"/>
<circle cx="75.9797" cy="78.7033" r="0.1778"/>
<circle cx="0.3492" cy="94.9184" r="0.3492"/>
<circle cx="37.9882" cy="4.7372" r="0.5183"/>
<circle cx="0.0697" cy="29.8748" r="0.0697"/>
<circle cx="98.6839" cy="71.4411" r="0.5391"/>
<circle cx="26.1896" cy="26.0833" r="0.5248"/>
<circle cx="57.8797" cy="72.7759" r="0.0579"/>
<circle cx="55.3687" cy="14.8401" r="0.5847"/>
<circle cx="17.6112" cy="25.6743" r="0.3524"/>
<circle cx="50.2091" cy="63.5800" r="0.6966"/>
<circle cx="39.2843" cy="73.9989" r="0.2477"/>
<circle cx="67.7421" cy="11.2351" r="0.7051"/>
<circle cx="96.2424" cy="28.7864" r="0.8983"/>
<circle cx="40.8487" cy="66.8997" r="0.8024"/>
<circle cx="92.6582" cy="99.8464" r="0.1536"/>
<circle cx="8.7738" cy="11.3098" r="0.5779"/>
<circle cx="36.0578" cy="97.4231" r="0.3030"/>
<circle cx="44.9029" cy="68.5856" r="0.1596"/>
<circle cx="30.6454" cy="1.7718" r="0.4692"/>
<circle cx="23.6008" cy="28.5930" r="0.0480"/>
<circle cx="3.4430" cy="48.8822" r="0.2433"/>
<circle cx="99.5369" cy="31.7925" r="0.4631"/>
<circle cx="26.3290" cy="17.7563" r="0.2740"/>
<circle cx="96.1487" cy="48.1978" r="0.5886"/>
<circle cx="9.4659" cy="15.5238" r="0.1335"/>
<circle cx="27.8169" cy="35.9224" r="0.1686"/>
<circle cx="93.0029" cy="96.8854" r="1.5827"/>
<circle cx="79.7270" cy="83.0685" r="0.2820"/>
<circle cx="99.6856" cy="23.0593" r="0.3144"/>
<circle cx="6.2830" cy="5.4942" r="0.1065"/>
<circle cx="15.5762" cy="91.2905" r="0.1590"/>
<circle cx="67.4061" cy="89.5724" r="0.2917"/>
<circle cx="0.6953" cy="98.4269" r="0.5553"/>
<circle cx="33.5949" cy="29.1411" r="0.0812"/>
<circle cx="98.2803" cy="8.6466" r="0.8175"/>
<circle cx="0.8538" cy="28.7472" r="0.8538"/>
<circle cx="89.4159" cy="63.4965" r="0.2921"/>
<circle cx="78.9893" cy="57.1791" r="0.0455"/>
<circle cx="89.0839" cy="72.2662" r="0.1229"/>
<circle cx="78.1115" cy="79.1902" r="0.0781"/>
<circle cx="40.3437" cy="42.2953" r="1.1477"/>
<circle cx="92.8103" cy="42.6772" r="0.0546"/>
<circle cx="98.2147" cy="30.9243" r="0.3137"/>
<circle cx="24.7214" cy="20.5220" r="0.1001"/>
<circle cx="26.8174" cy="70.1148" r="0.9053"/>
<circle cx="95.2566" cy="47.4835" r="0.5542"/>
<circle cx="28.1568" cy="69.9367" r="0.3031"/>
<circle cx="31.7199" cy="44.3949" r="0.2732"/>
<circle cx="98.9261" cy="75.7333" r="0.6304"/>
<circle cx="3.5244" cy="25.8916" r="0.4361"/>
<circle cx="98.8120" cy="44.1636" r="0.3301"/>
<circle cx="48.8569" cy="27.4928" r="0.4274"/>
<circle cx="6.8365" cy="52.8044" r="1.0902"/>
<circle cx="72.9266" cy="77.7810" r="0.6515"/>
<circle cx="9.9571" cy="6.9785" r="1.5158"/>
<circle cx="96.3589" cy="90.4025" r="0.0839"/>
<circle cx="76.9039" cy="82.1491" r="0.4162"/>
<circle cx="34.9780" cy="21.3775" r="0.1700"/>
<circle cx="33.2650" cy="10.1582" r="1.1400"/>
<circle cx="2.4773" cy="30.9116" r="0.3262"/>
<circle cx="31.7538" cy="25.2311" r="0.5748"/>
<circle cx="5.4184" cy="8.8329" r="0.1070"/>
<circle cx="56.7784" cy="56.9483" r="0.2580"/>
<circle cx="26.6090" cy="74.1363" r="0.0739"/>
<circle cx="31.6317" cy="13.4234" r="0.2704"/>
<circle cx="66.5774" cy="3.7480" r="0.1202"/>
<circle cx="1.9359" cy="47.1262" r="0.3618"/>
<circle cx="25.2592" cy="68.6754" r="0.3022"/>
<circle cx="10.2937" cy="25.5623" r="0.3343"/>
<circle cx="91.5800" cy="67.6656" r="0.3541"/>
<circle cx="26.0932" cy="69.3405" r="0.1549"/>
<circle cx="39.8722" cy="45.2328" r="0.4079"/>
<circle cx="73.6783" cy="15.3416" r="0.0227"/>
<circle cx="47.3810" cy="28.2448" r="1.2290"/>
<circle cx="93.5249" cy="1.8201" r="0.7424"/>
<circle cx="34.0942" cy="99.7001" r="0.2999"/>
<circle cx="99.3855" cy="51.4992" r="0.6145"/>
<circle cx="4.5719" cy="52.9260" r="0.1710"/>
<circle cx="3.4186" cy="68.2759" r="0.0021"/>
<circle cx="93.4480" cy="99.8196" r="0.1804"/>
<circle cx="44.0604" cy="99.3984" r="0.6016"/>
<circle cx="2.3851" cy="47.6234" r="0.2717"/>
<circle cx="67.4033" cy="72.0683" r="0.1573"/>
<circle cx="2.4362" cy="69.4244" r="0.0380"/>
<circle cx="18.8601" cy="60.8179" r="0.0634"/>
<circle cx="31.8777" cy="2.0280" r="0.2370"/>
<circle cx="0.4571" cy="96.8697" r="0.4571"/>
<circle cx="99.9813" cy="31.5244" r="0.0187"/>
<circle cx="41.0596" cy="74.7236" r="1.0809"/>
<circle cx="7.2814" cy="22.6390" r="0.7153"/>
<circle cx="36.0935" cy="20.8190" r="0.4567"/>
<circle cx="9.1596" cy="89.6814" r="0.1736"/>
<circle cx="9.2034" cy="95.2131" r="0.5019"/>
<circle cx="65.7744" cy="62.7356" r="0.8679"/>
<circle cx="95.3683" cy="94.4436" r="0.1028"/>
<circle cx="90.0651" cy="43.3586" r="0.0952"/>
<circle cx="20.1814" cy="62.5379" r="0.2338"/>
<circle cx="35.9794" cy="7.7430" r="0.1704"/>
<circle cx="43.9700" cy="60.7250" r="0.4834"/>
<circle cx="43.7568" cy="73.4285" r="0.5337"/>
<circle cx="10.0528" cy="1.5125" r="0.4442"/>
<circle cx="26.6120" cy="73.5999" r="0.2649"/>
<circle cx="26.2505" cy="69.0331" r="0.1441"/>
<circle cx="85.8588" cy="72.7426" r="0.2423"/>
<circle cx="96.6931" cy="57.1216" r="0.0812"/>
<circle cx="66.7796" cy="12.5384" r="0.1683"/>
<circle cx="5.7895" cy="50.7924" r="0.1224"/>
<circle cx="72.0762" cy="62.3403" r="0.6551"/>
<circle cx="34.9122" cy="82.2957" r="0.7031"/>
<circle cx="26.3569" cy="75.1125" r="0.0323"/>
<circle cx="26.3347" cy="81.7035" r="0.0287"/>
<circle cx="2.8082" cy="51.7538" r="0.2281"/>
<circle cx="21.0777" cy="64.2547" r="0.1677"/>
<circle cx="9.3106" cy="21.6364" r="1.5481"/>
<circle cx="34.6956" cy="23.1889" r="0.5780"/>
<circle cx="38.7834" cy="75.5851" r="0.4445"/>
<circle cx="92.8349" cy="41.2112" r="0.0143"/>
<circle cx="37.8108" cy="34.0431" r="1.0256"/>
<circle cx="54.1411" cy="1.7233" r="0.3128"/>
<circle cx="39.2393" cy="68.7034" r="0.5433"/>
<circle cx="9.4618" cy="15.3301" r="0.0603"/>
<circle cx="15.2683" cy="23.2762" r="0.0994"/>
<circle cx="8.3329" cy="23.5975" r="0.5217"/>
<circle cx="38.4389" cy="7.4995" r="0.5264"/>
<circle cx="51.7410" cy="23.4362" r="0.4148"/>
<circle cx="97.1001" cy="91.5843" r="0.2738"/>
<circle cx="13.8873" cy="25.0434" r="0.4780"/>
<circle cx="25.6286" cy="47.1282" r="0.2405"/>
<circle cx="47.8584" cy="72.2758" r="0.0655"/>
<circle cx="77.5617" cy="75.1230" r="0.0501"/>
<circle cx="47.2283" cy="71.9344" r="0.5538"/>
<circle cx="57.0207" cy="99.0360" r="0.3027"/>
<circle cx="48.3670" cy="52.9379" r="1.5319"/>
<circle cx="73.2806" cy="60.1886" r="0.8074"/>
<circle cx="39.9666" cy="75.7213" r="0.3990"/>
<circle cx="82.5131" cy="88.9643" r="0.3800"/>
<circle cx="4.8046" cy="64.4278" r="0.9774"/>
<circle cx="67.8637" cy="69.4429" r="0.3962"/>
<circle cx="86.5426" cy="79.4896" r="0.2571"/>
<circle cx="99.6168" cy="64.5487" r="0.1763"/>
<circle cx="90.5607" cy="71.2918" r="0.5035"/>
<circle cx="27.2300" cy="82.5550" r="0.2330"/>
<circle cx="17.5595" cy="94.4102" r="1.3252"/>
<circle cx="2.8764" cy="64.4065" r="0.5659"/>
<circle cx="66.4894" cy="66.1893" r="0.8619"/>
<circle cx="37.8247" cy="46.6823" r="0.3115"/>
<circle cx="53.9867" cy="3.9635" r="0.2999"/>
<circle cx="72.9837" cy="61.7628" r="0.2178"/>
<circle cx="8.7035" cy="92.4292" r="0.5769"/>
<circle cx="7.4696" cy="65.0783" r="0.1982"/>
<circle cx="0.1527" cy="71.2412" r="0.1527"/>
<circle cx="97.7504" cy="28.2993" r="0.6865"/>
<circle cx="83.7987" cy="95.2540" r="0.5463"/>
<circle cx="82.5267" cy="97.0060" r="0.1040"/>
<circle cx="36.4359" cy="25.7821" r="0.3450"/>
<circle cx="90.8611" cy="38.1455" r="0.8179"/>
<circle cx="39.5647" cy="24.7587" r="0.3852"/>
<circle cx="1.0174" cy="71.3444" r="0.2791"/>
<circle cx="90.4575" cy="27.3332" r="0.0604"/>
<circle cx="68.3446" cy="14.0702" r="0.3014"/>
<circle cx="52.7252" cy="59.0114" r="0.7479"/>
<circle cx="34.2063" cy="12.1853" r="1.0950"/>
<circle cx="35.4138" cy="99.7928" r="0.2072"/>
<circle cx="2.0451" cy="65.6658" r="0.3393"/>
<circle cx="79.3625" cy="17.0234" r="0.6600"/>
<circle cx="58.5618" cy="99.2035" r="0.7965"/>
<circle cx="55.7742" cy="13.9089" r="0.3022"/>
<circle cx="87.9039" cy="62.0940" r="1.1768"/>
<circle cx="97.3738" cy="71.6963" r="0.1434"/>
<circle cx="21.4496" cy="65.8748" r="0.7602"/>
<circle cx="64.3573" cy="69.2647" r="0.0970"/>
<circle cx="37.6518" cy="30.6595" r="1.3588"/>
<circle cx="51.0573" cy="5.9587" r="1.2945"/>
<circle cx="92.7822" cy="48.2997" r="0.6360"/>
<circle cx="87.6701" cy="63.3894" r="0.1395"/>
<circle cx="63.2630" cy="95.0204" r="0.7517"/>
<circle cx="46.0872" cy="32.2666" r="0.8760"/>
<circle cx="50.7427" cy="2.3644" r="2.3136"/>
<circle cx="25.3948" cy="26.4251" r="0.3404"/>
<circle cx="32.1268" cy="39.3805" r="0.6479"/>
<circle cx="91.0572" cy="67.6172" r="0.1709"/>
<circle cx="70.6949" cy="83.7582" r="0.0074"/>
<circle cx="35.8106" cy="98.8779" r="0.7900"/>
<circle cx="38.9699" cy="43.1328" r="0.4613"/>
<circle cx="74.7105" cy="81.1585" r="0.2993"/>
<circle cx="10.3720" cy="16.3838" r="0.7180"/>
<circle cx="76.8868" cy="13.3804" r="0.2443"/>
<circle cx="92.6994" cy="39.4152" r="0.7955"/>
<circle cx="25.1761" cy="24.8979" r="0.4492"/>
<circle cx="65.9942" cy="1.9137" r="0.6928"/>
<circle cx="72.5963" cy="84.6038" r="0.7964"/>
<circle cx="79.7577" cy="17.5719" r="0.0161"/>
<circle cx="19.6434" cy="0.2227" r="0.2227"/>
<circle cx="97.9531" cy="9.6159" r="0.2055"/>
<circle cx="25.7130" cy="80.5695" r="0.1601"/>
<circle cx="92.0309" cy="7.3481" r="0.4374"/>
<circle cx="67.3409" cy="88.3039" r="0.0813"/>
<circle cx="94.1167" cy="54.9299" r="0.5651"/>
<circle cx="10.9276" cy="61.2316" r="0.1902"/>
<circle cx="6.8944" cy="90.2165" r="0.8235"/>
<circle cx="47.8717" cy="67.6227" r="0.2071"/>
<circle cx="10.1825" cy="93.1614" r="0.4631"/>
<circle cx="53.6403" cy="5.2406" r="0.0386"/>
<circle cx="17.5018" cy="91.5818" r="1.5039"/>
<circle cx="91.7493" cy="4.8670" r="0.3348"/>
<circle cx="40.7843" cy="34.9965" r="0.4556"/>
<circle cx="66.8934" cy="2.8161" r="0.5812"/>
<circle cx="89.2069" cy="71.4392" r="0.7132"/>
<circle cx="25.8428" cy="70.6279" r="0.1962"/>
<circle cx="2.4960" cy="98.9278" r="0.2884"/>
<circle cx="9.4757" cy="24.2728" r="0.8057"/>
<circle cx="75.7085" cy="81.7811" r="0.6629"/>
<circle cx="97.1937" cy="99.3303" r="0.6697"/>
<circle cx="33.0860" cy="13.4040" r="0.4891"/>
<circle cx="36.4979" cy="34.3807" r="0.3300"/>
<circle cx="97.7481" cy="76.8420" r="0.3129"/>
<circle cx="96.9861" cy="63.0219" r="0.4274"/>
<circle cx="68.6987" cy="3.7219" r="0.6287"/>
<circle cx="98.3263" cy="27.4590" r="0.3322"/>
<circle cx="94.8976" cy="61.0193" r="0.0777"/>
<circle cx="29.4662" cy="37.3088" r="0.6055"/>
<circle cx="78.7754" cy="84.3039" r="0.6163"/>
<circle cx="81.0429" cy="16.4751" r="0.7658"/>
<circle cx="19.8420" cy="52.2089" r="0.3046"/>
<circle cx="38.0592" cy="72.0548" r="0.0549"/>
<circle cx="45.5004" cy="54.2683" r="0.4545"/>
<circle cx="54.0802" cy="0.2171" r="0.2171"/>
<circle cx="97.7675" cy="96.7261" r="0.6672"/>
<circle cx="19.8836" cy="63.5389" r="0.8106"/>
<circle cx="95.9043" cy="45.7931" r="0.1730"/>
<circle cx="38.7738" cy="33.0829" r="0.3343"/>
<circle cx="94.6761" cy="39.9211" r="0.2005"/>
<circle cx="20.5378" cy="62.8456" r="0.0189"/>
<circle cx="68.0129" cy="97.5080" r="0.2562"/>
<circle cx="3.7959" cy="87.7097" r="0.1542"/>
<circle cx="13.9593" cy="9.2428" r="0.1683"/>
<circle cx="62.5778" cy="77.7696" r="0.0634"/>
<circle cx="68.6940" cy="97.8877" r="0.4995"/>
<circle cx="50.6619" cy="65.3427" r="0.0364"/>
<circle cx="38.5851" cy="41.4384" r="0.8086"/>
<circle cx="15.9921" cy="91.1039" r="0.0797"/>
<circle cx="99.9518" cy="79.9341" r="0.0482"/>
<circle cx="30.6821" cy="99.7527" r="0.2473"/>
<circle cx="32.3638" cy="11.4360" r="0.4236"/>
<circle cx="63.7695" cy="59.6351" r="0.1660"/>
<circle cx="23.3539" cy="24.0609" r="0.7305"/>
<circle cx="37.3343" cy="35.4303" r="0.4412"/>
<circle cx="57.1299" cy="1.2743" r="0.1306"/>
<circle cx="11.5434" cy="0.9215" r="0.3519"/>
<circle cx="42.8160" cy="67.6589" r="0.1950"/>
<circle cx="1.9965" cy="26.3975" r="0.8803"/>
<circle cx="68.5439" cy="95.4450" r="0.4229"/>
<circle cx="48.0589" cy="62.7364" r="0.1268"/>
<circle cx="48.6883" cy="24.9840" r="0.7861"/>
<circle cx="11.4943" cy="62.8000" r="1.3378"/>
<circle cx="36.5876" cy="85.8619" r="0.5220"/>
<circle cx="78.8091" cy="85.1248" r="0.2053"/>
<circle cx="94.4420" cy="56.1952" r="0.0675"/>
<circle cx="22.0632" cy="26.5750" r="0.0454"/>
<circle cx="85.0252" cy="95.2474" r="0.0336"/>
<circle cx="95.4140" cy="54.4875" r="0.2982"/>
<circle cx="29.2269" cy="99.9726" r="0.0274"/>
<circle cx="91.2754" cy="38.9456" r="0.0832"/>
<circle cx="64.6978" cy="97.8125" r="0.1358"/>
<circle cx="36.3849" cy="25.3471" r="0.0032"/>
<circle cx="7.7210" cy="89.2564" r="0.2726"/>
<circle cx="97.7445" cy="50.9243" r="0.2806"/>
<circle cx="45.3473" cy="36.5477" r="1.1966"/>
<circle cx="71.7753" cy="0.7965" r="0.7965"/>
<circle cx="62.3422" cy="96.0254" r="0.6114"/>
<circle cx="80.5975" cy="0.3537" r="0.3537"/>
<circle cx="0.1455" cy="0.5551" r="0.1455"/>
<circle cx="18.1624" cy="5.6654" r="0.5776"/>
<circle cx="52.7150" cy="6.6333" r="0.4595"/>
<circle cx="52.8980" cy="8.4697" r="0.2880"/>
<circle cx="23.5764" cy="21.8352" r="0.2286"/>
<circle cx="27.0589" cy="82.3553" r="0.0300"/>
<circle cx="86.9275" cy="70.9233" r="0.0033"/>
<circle cx="6.8739" cy="19.0533" r="0.9365"/>
<circle cx="89.1190" cy="26.3190" r="0.2082"/>
<circle cx="77.8355" cy="82.0279" r="0.0957"/>
<circle cx="2.1242" cy="31.0391" r="0.0492"/>
<circle cx="68.7939" cy="75.8180" r="0.1906"/>
<circle cx="91.4854" cy="53.7683" r="0.8492"/>
<circle cx="10.3681" cy="54.3853" r="0.9456"/>
<circle cx="1.9533" cy="55.6992" r="0.2436"/>
<circle cx="90.1392" cy="97.1408" r="1.1425"/>
<circle cx="96.1869" cy="83.1333" r="0.8618"/>
<circle cx="35.7347" cy="27.7829" r="0.6919"/>
<circle cx="38.3056" cy="35.8551" r="0.0180"/>
<circle cx="76.6572" cy="81.7612" r="0.0435"/>
<circle cx="18.4325" cy="52.6110" r="0.1482"/>
<circle cx="99.6013" cy="48.7453" r="0.3987"/>
<circle cx="28.1154" cy="70.6334" r="0.3949"/>
<circle cx="37.6620" cy="28.9676" r="0.2991"/>
<circle cx="37.5441" cy="46.9151" r="0.0531"/>
<circle cx="68.2301" cy="12.7440" r="0.7013"/>
<circle cx="23.2764" cy="22.2150" r="0.2554"/>
<circle cx="0.3812" cy="24.2756" r="0.3538"/>
<circle cx="41.8169" cy="66.4075" r="0.2838"/>
<circle cx="39.7671" cy="74.7958" r="0.2136"/>
<circle cx="23.1083" cy="23.0385" r="0.3209"/>
<circle cx="50.3004" cy="65.3871" r="0.3278"/>
<circle cx="86.1570" cy="50.9325" r="0.1036"/>
<circle cx="20.1491" cy="52.5442" r="0.1501"/>
<circle cx="8.8002" cy="23.2446" r="0.0639"/>
<circle cx="94.8860" cy="72.3413" r="0.1557"/>
<circle cx="39.1435" cy="25.5540" r="0.5061"/>
<circle cx="8.2116" cy="0.2025" r="0.2025"/>
<circle cx="32.4406" cy="21.9749" r="0.1039"/>
<circle cx="18.4323" cy="5.0085" r="0.1327"/>
<circle cx="25.3368" cy="82.7475" r="0.5554"/>
<circle cx="39.2417" cy="29.3387" r="0.7081"/>
<circle cx="7.2347" cy="7.4385" r="0.8021"/>
<circle cx="90.4758" cy="39.7908" r="0.4904"/>
<circle cx="6.3103" cy="7.5877" r="0.1343"/>
<circle cx="88.3518" cy="68.0633" r="0.4316"/>
<circle cx="13.7862" cy="21.6733" r="0.1233"/>
<circle cx="51.1504" cy="57.2776" r="0.2717"/>
<circle cx="80.9109" cy="19.6417" r="0.6789"/>
<circle cx="9.1685" cy="96.3444" r="0.2283"/>
<circle cx="88.7894" cy="27.2082" r="0.7401"/>
<circle cx="43.2269" cy="62.2621" r="0.0351"/>
<circle cx="17.3355" cy="24.4926" r="0.3945"/>
<circle cx="93.5607" cy="45.2054" r="0.3739"/>
<circle cx="67.8482" cy="96.9433" r="0.0921"/>
<circle cx="90.7697" cy="99.7076" r="0.2924"/>
<circle cx="75.3643" cy="1.6816" r="0.5478"/>
<circle cx="2.7335" cy="98.7551" r="0.0052"/>
<circle cx="68.1092" cy="11.9445" r="0.0937"/>
<circle cx="64.0079" cy="15.6119" r="1.1684"/>
<circle cx="92.4567" cy="99.2207" r="0.3088"/>
<circle cx="83.1827" cy="96.9694" r="0.5531"/>
<circle cx="1.3162" cy="33.2947" r="0.0809"/>
<circle cx="48.0784" cy="29.8065" r="0.1262"/>
<circle cx="33.5864" cy="4.3730" r="0.2523"/>
<circle cx="41.9010" cy="37.8272" r="0.0332"/>
<circle cx="11.0864" cy="61.5135" r="0.0118"/>
<circle cx="81.4933" cy="15.4645" r="0.3407"/>
<circle cx="91.8248" cy="68.2300" r="0.1344"/>
<circle cx="67.0417" cy="89.8735" r="0.1811"/>
<circle cx="36.8633" cy="20.3304" r="0.0974"/>
<circle cx="81.9279" cy="83.8830" r="0.7594"/>
<circle cx="92.8523" cy="0.4743" r="0.4743"/>
<circle cx="58.9901" cy="0.7285" r="0.0596"/>
<circle cx="27.2402" cy="45.7677" r="0.9770"/>
<circle cx="37.8983" cy="7.9155" r="0.0402"/>
<circle cx="46.7624" cy="53.1566" r="0.0876"/>
<circle cx="0.6361" cy="23.5624" r="0.4035"/>
<circle cx="98.8588" cy="40.9107" r="0.6879"/>
<circle cx="15.0826" cy="93.0770" r="0.0578"/>
<circle cx="63.4123" cy="1.0884" r="0.1615"/>
<circle cx="38.7578" cy="4.9913" r="0.0094"/>
<circle cx="70.9091" cy="68.5705" r="0.6540"/>
<circle cx="5.3405" cy="6.7139" r="0.1872"/>
<circle cx="75.2262" cy="74.1566" r="0.3627"/>
<circle cx="39.7381" cy="99.7237" r="0.2763"/>
<circle cx="47.3404" cy="2.3525" r="1.0887"/>
<circle cx="69.4633" cy="61.0839" r="1.1738"/>
<circle cx="26.4767" cy="8.1285" r="0.0002"/>
<circle cx="46.8206" cy="26.2636" r="0.8299"/>
<circle cx="20.0123" cy="7.9606" r="0.1743"/>
<circle cx="36.9203" cy="87.2719" r="0.2477"/>
<circle cx="78.1955" cy="15.2930" r="0.5739"/>
<circle cx="66.1786" cy="63.9619" r="0.0832"/>
<circle cx="83.0631" cy="82.7133" r="0.0805"/>
<circle cx="52.7719" cy="8.8487" r="0.1114"/>
<circle cx="98.8523" cy="87.1869" r="0.6347"/>
<circle cx="73.5396" cy="85.2299" r="0.3358"/>
<circle cx="97.5940" cy="42.1041" r="0.6488"/>
<circle cx="10.4976" cy="0.8914" r="0.3197"/>
<circle cx="19.5869" cy="60.9744" r="0.3413"/>
<circle cx="1.5356" cy="62.8653" r="0.2631"/>
<circle cx="7.1936" cy="16.7980" r="0.1302"/>
<circle cx="96.0347" cy="56.7530" r="0.2068"/>
<circle cx="72.9817" cy="99.4503" r="0.5494"/>
<circle cx="0.8485" cy="27.0090" r="0.4205"/>
<circle cx="1.8804" cy="62.4282" r="0.1122"/>
<circle cx="55.0175" cy="14.1541" r="0.1859"/>
<circle cx="58.7180" cy="74.0351" r="0.1268"/>
<circle cx="26.6902" cy="79.3762" r="0.5476"/>
<circle cx="35.2141" cy="34.3012" r="0.5828"/>
<circle cx="71.0778" cy="70.6401" r="0.5092"/>
<circle cx="42.3568" cy="33.9599" r="0.4636"/>
<circle cx="36.1710" cy="3.7839" r="1.5338"/>
<circle cx="75.6184" cy="79.3663" r="0.1996"/>
<circle cx="28.8498" cy="70.3669" r="0.3864"/>
<circle cx="63.2739" cy="0.7325" r="0.2204"/>
<circle cx="39.8514" cy="35.7079" r="0.2472"/>
<circle cx="57.0778" cy="98.7350" r="0.0037"/>
<circle cx="64.1866" cy="60.8331" r="0.3409"/>
<circle cx="90.1803" cy="60.8417" r="0.3861"/>
<circle cx="99.9660" cy="20.1382" r="0.0340"/>
<circle cx="72.2487" cy="2.0081" r="0.1964"/>
<circle cx="43.0165" cy="33.7216" r="0.2378"/>
<circle cx="22.9275" cy="22.1039" r="0.0668"/>
<circle cx="15.0392" cy="0.0532" r="0.0532"/>
<circle cx="41.4516" cy="73.0329" r="0.2472"/>
<circle cx="99.7661" cy="25.6292" r="0.2106"/>
<circle cx="51.5988" cy="22.5135" r="0.1310"/>
<circle cx="7.4614" cy="1.9031" r="0.6300"/>
<circle cx="56.4174" cy="0.5642" r="0.5239"/>
<circle cx="69.6663" cy="70.2786" r="0.6366"/>
<circle cx="26.6101" cy="0.7359" r="0.2599"/>
<circle cx="27.6768" cy="14.5670" r="0.4925"/>
<circle cx="35.5370" cy="40.6963" r="0.6774"/>
<circle cx="68.3644" cy="64.0871" r="1.7485"/>
<circle cx="40.2598" cy="28.2248" r="0.2804"/>
<circle cx="38.5732" cy="92.7862" r="0.2355"/>
<circle cx="29.8624" cy="27.2921" r="0.8429"/>
<circle cx="64.3897" cy="14.2290" r="0.1312"/>
<circle cx="26.7397" cy="80.4018" r="0.4792"/>
<circle cx="54.8929" cy="17.2856" r="0.3158"/>
<circle cx="99.5882" cy="85.1264" r="0.4118"/>
<circle cx="92.7201" cy="49.0432" r="0.1101"/>
<circle cx="63.7604" cy="0.2897" r="0.2897"/>
<circle cx="70.7397" cy="0.9988" r="0.2076"/>
<circle cx="64.3917" cy="92.1649" r="0.3786"/>
<circle cx="96.8924" cy="82.5295" r="0.0668"/>
<circle cx="71.3214" cy="69.3583" r="0.2352"/>
<circle cx="29.1451" cy="82.1661" r="0.1693"/>
<circle cx="37.0523" cy="84.0708" r="0.1855"/>
<circle cx="69.8690" cy="91.6649" r="0.0706"/>
<circle cx="82.3927" cy="99.8127" r="0.1873"/>
<circle cx="10.1009" cy="17.9909" r="0.9117"/>
<circle cx="38.4477" cy="99.1850" r="0.3807"/>
<circle cx="99.8124" cy="31.3023" r="0.0993"/>
<circle cx="38.1226" cy="91.6639" r="0.1750"/>
<circle cx="19.2430" cy="58.5987" r="0.3667"/>
<circle cx="34.8568" cy="28.6301" r="0.5281"/>
<circle cx="46.9894" cy="68.9451" r="0.3878"/>
<circle cx="20.1786" cy="1.2071" r="0.2938"/>
<circle cx="41.4483" cy="48.6128" r="0.3188"/>
<circle cx="65.9843" cy="96.6750" r="0.6129"/>
<circle cx="50.5887" cy="52.0951" r="0.7580"/>
<circle cx="26.3318" cy="0.0116" r="0.0116"/>
<circle cx="31.7775" cy="11.9775" r="0.3007"/>
<circle cx="35.5078" cy="85.3267" r="0.1044"/>
<circle cx="95.8676" cy="59.5647" r="0.3283"/>
<circle cx="89.9243" cy="5.7020" r="0.3977"/>
<circle cx="78.2042" cy="58.2901" r="0.4395"/>
<circle cx="49.4932" cy="50.9373" r="0.4876"/>
<circle cx="25.0942" cy="26.0241" r="0.1607"/>
<circle cx="43.2455" cy="33.3017" r="0.2405"/>
<circle cx="51.4774" cy="7.6838" r="0.1555"/>
<circle cx="72.0127" cy="87.3033" r="0.6864"/>
<circle cx="47.8015" cy="71.6291" r="0.0957"/>
<circle cx="27.7554" cy="15.7881" r="0.3765"/>
<circle cx="0.8698" cy="65.1434" r="0.8698"/>
<circle cx="69.1898" cy="14.2882" r="0.5713"/>
<circle cx="61.9174" cy="17.0399" r="0.3325"/>
<circle cx="95.5896" cy="97.1660" r="1.0192"/>
<circle cx="41.2937" cy="50.3507" r="0.5281"/>
<circle cx="28.8352" cy="13.6180" r="0.2830"/>
<circle cx="5.0431" cy="88.0536" r="0.5573"/>
<circle cx="75.0028" cy="86.6375" r="0.2033"/>
<circle cx="99.7482" cy="92.2920" r="0.2518"/>
<circle cx="82.9003" cy="0.5309" r="0.5309"/>
<circle cx="53.3019" cy="1.8624" r="0.2945"/>
<circle cx="39.1473" cy="5.7603" r="0.2907"/>
<circle cx="7.5839" cy="26.9799" r="0.0375"/>
<circle cx="26.5476" cy="19.5758" r="1.1319"/>
<circle cx="65.6554" cy="97.2721" r="0.0687"/>
<circle cx="54.9333" cy="2.0233" r="0.1536"/>
<circle cx="99.5921" cy="89.8817" r="0.4079"/>
<circle cx="20.8927" cy="87.5399" r="0.0903"/>
<circle cx="4.1075" cy="8.1551" r="0.0538"/>
<circle cx="67.5199" cy="12.2495" r="0.1640"/>
<circle cx="85.6132" cy="73.8491" r="0.8868"/>
<circle cx="45.5482" cy="72.9376" r="0.1632"/>
<circle cx="49.8894" cy="24.6470" r="0.4614"/>
<circle cx="15.7754" cy="90.6108" r="0.4589"/>
<circle cx="0.0075" cy="14.2629" r="0.0075"/>
<circle cx="89.9953" cy="33.0630" r="0.5486"/>
<circle cx="6.2691" cy="6.8177" r="0.3459"/>
<circle cx="76.9175" cy="80.8805" r="0.8447"/>
<circle cx="89.7370" cy="27.3668" r="0.2207"/>
<circle cx="38.3004" cy="32.7801" r="0.2277"/>
<circle cx="92.2897" cy="83.0299" r="0.0635"/>
<circle cx="96.4278" cy="89.2003" r="0.0609"/>
<circle cx="99.6392" cy="40.3645" r="0.2646"/>
<circle cx="47.9076" cy="26.1283" r="0.2655"/>
<circle cx="36.7253" cy="83.1810" r="0.1592"/>
<circle cx="15.1644" cy="23.8404" r="0.2403"/>
<circle cx="34.3605" cy="13.9830" r="0.5371"/>
<circle cx="47.3192" cy="54.3268" r="0.0204"/>
<circle cx="82.9397" cy="96.2600" r="0.0973"/>
<circle cx="8.0534" cy="91.3921" r="0.2025"/>
<circle cx="28.0796" cy="71.6099" r="0.1996"/>
<circle cx="99.7088" cy="40.0346" r="0.0726"/>
<circle cx="31.1699" cy="24.5035" r="0.3581"/>
<circle cx="12.3220" cy="91.0184" r="0.1945"/>
<circle cx="36.8713" cy="41.4312" r="0.2839"/>
<circle cx="39.9863" cy="35.4845" r="0.0138"/>
<circle cx="21.6364" cy="95.7707" r="0.2908"/>
<circle cx="98.5078" cy="79.5762" r="0.3312"/>
<circle cx="87.9583" cy="60.7409" r="0.0929"/>
<circle cx="87.9632" cy="81.2806" r="0.1017"/>
<circle cx="96.3785" cy="58.9210" r="0.0285"/>
<circle cx="11.1762" cy="25.5474" r="0.1089"/>
<circle cx="49.6065" cy="54.3119" r="0.3186"/>
<circle cx="85.5265" cy="9.6021" r="0.0664"/>
<circle cx="34.5116" cy="9.9569" r="0.1228"/>
<circle cx="69.7246" cy="12.7991" r="0.2640"/>
<circle cx="72.3832" cy="15.4622" r="0.2394"/>
<circle cx="17.8929" cy="24.8240" r="0.2540"/>
<circle cx="98.3403" cy="78.7567" r="0.0397"/>
<circle cx="26.9782" cy="16.8478" r="0.7256"/>
<circle cx="3.2214" cy="29.6627" r="0.5474"/>
<circle cx="88.7250" cy="64.1328" r="0.6111"/>
<circle cx="35.8845" cy="70.1932" r="0.3515"/>
<circle cx="11.9607" cy="22.6685" r="0.9067"/>
<circle cx="11.1955" cy="99.0439" r="0.0929"/>
<circle cx="46.7374" cy="5.4003" r="0.2437"/>
<circle cx="69.3614" cy="13.6020" r="0.1361"/>
<circle cx="17.4689" cy="8.0803" r="0.0422"/>
<circle cx="11.3319" cy="5.0537" r="0.6487"/>
<circle cx="92.2534" cy="29.7046" r="0.1639"/>
<circle cx="87.5371" cy="27.1218" r="0.4477"/>
<circle cx="48.5278" cy="27.1309" r="0.0618"/>
<circle cx="64.5619" cy="68.7272" r="0.0131"/>
<circle cx="9.5706" cy="9.2747" r="0.8127"/>
<circle cx="19.2749" cy="54.0593" r="0.5935"/>
<circle cx="99.4504" cy="38.0290" r="0.0450"/>
<circle cx="17.2779" cy="96.0986" r="0.3865"/>
<circle cx="80.1637" cy="10.1337" r="0.7863"/>
<circle cx="68.6254" cy="69.8264" r="0.2007"/>
<circle cx="67.0562" cy="91.8616" r="0.0991"/>
<circle cx="40.0431" cy="0.0581" r="0.0581"/>
<circle cx="97.9878" cy="90.6704" r="1.0002"/>
<circle cx="81.6880" cy="19.9226" r="0.1474"/>
<circle cx="58.7381" cy="16.5295" r="1.0080"/>
<circle cx="88.0303" cy="5.4337" r="0.0010"/>
<circle cx="19.5360" cy="23.5396" r="0.2824"/>
<circle cx="12.3419" cy="54.7246" r="0.9784"/>
<circle cx="92.9906" cy="55.8110" r="0.0769"/>
<circle cx="55.9114" cy="14.5801" r="0.0171"/>
<circle cx="92.0585" cy="34.0823" r="0.3296"/>
<circle cx="98.3564" cy="1.5827" r="1.4739"/>
<circle cx="12.4252" cy="92.0470" r="0.5679"/>
<circle cx="5.2037" cy="0.4286" r="0.2954"/>
<circle cx="12.3572" cy="20.7758" r="0.5065"/>
<circle cx="38.3635" cy="46.9690" r="0.2989"/>
<circle cx="78.2454" cy="75.5228" r="0.2093"/>
<circle cx="46.0262" cy="48.9555" r="0.3669"/>
<circle cx="46.7213" cy="70.3024" r="0.7767"/>
<circle cx="40.6697" cy="99.9656" r="0.0344"/>
<circle cx="4.9890" cy="55.6026" r="0.0275"/>
<circle cx="65.4174" cy="15.4923" r="0.2461"/>
<circle cx="33.2356" cy="39.7298" r="0.3384"/>
<circle cx="78.8202" cy="3.9337" r="0.1551"/>
<circle cx="15.8730" cy="92.5973" r="0.4156"/>
<circle cx="40.1338" cy="39.9707" r="0.0971"/>
<circle cx="27.5361" cy="27.4680" r="0.1761"/>
<circle cx="67.6566" cy="66.1838" r="0.3053"/>
<circle cx="21.4521" cy="87.7504" r="0.1351"/>
<circle cx="82.7317" cy="82.2678" r="0.0681"/>
<circle cx="69.1686" cy="95.3854" r="0.2046"/>
<circle cx="27.8010" cy="19.5771" r="0.1215"/>
<circle cx="75.4676" cy="80.3730" r="0.1906"/>
<circle cx="0.7072" cy="18.9605" r="0.1808"/>
<circle cx="70.6732" cy="2.6774" r="0.1626"/>
<circle cx="38.5091" cy="25.5337" r="0.1053"/>
<circle cx="24.3683" cy="23.4764" r="0.4401"/>
<circle cx="52.1112" cy="70.7900" r="0.2271"/>
<circle cx="38.0297" cy="32.0867" r="0.1175"/>
<circle cx="65.2470" cy="66.9866" r="0.0709"/>
<circle cx="52.3591" cy="7.5400" r="0.5145"/>
<circle cx="8.3656" cy="6.7723" r="0.0890"/>
<circle cx="76.9659" cy="13.6277" r="0.0153"/>
<circle cx="99.9696" cy="17.9849" r="0.0059"/>
<circle cx="9.5473" cy="11.0554" r="0.1241"/>
<circle cx="70.6057" cy="84.1262" r="0.0317"/>
<circle cx="10.3651" cy="95.4161" r="0.2740"/>
<circle cx="9.4273" cy="98.2125" r="1.1973"/>
<circle cx="1.5712" cy="62.3268" r="0.2132"/>
<circle cx="97.7942" cy="62.2180" r="0.3377"/>
<circle cx="18.0131" cy="25.7487" r="0.0564"/>
<circle cx="29.5378" cy="13.7961" r="0.4419"/>
<circle cx="89.1036" cy="62.4670" r="0.0542"/>
<circle cx="44.7642" cy="73.0913" r="0.3517"/>
<circle cx="94.8005" cy="30.5562" r="1.3845"/>
<circle cx="97.8170" cy="63.7998" r="0.3410"/>
<circle cx="53.1050" cy="8.2367" r="0.0237"/>
<circle cx="43.8875" cy="37.3340" r="0.1674"/>
<circle cx="18.0978" cy="24.1012" r="0.4625"/>
<circle cx="9.6981" cy="95.8922" r="0.3382"/>
<circle cx="77.8685" cy="14.7807" r="0.0340"/>
<circle cx="92.7292" cy="64.6480" r="0.4596"/>
<circle cx="24.5546" cy="30.3181" r="0.1635"/>
<circle cx="11.5943" cy="99.8220" r="0.1780"/>
<circle cx="92.1829" cy="64.8401" r="0.0317"/>
<circle cx="0.0924" cy="81.5759" r="0.0924"/>
<circle cx="56.0824" cy="15.3399" r="0.2866"/>
<circle cx="49.9207" cy="61.0917" r="0.3192"/>
<circle cx="60.3264" cy="17.8622" r="0.0753"/>
</svg>
